<?xml version="1.0" encoding="utf-8"?>
<!-- Generator: Adobe Illustrator 27.0.0, SVG Export Plug-In . SVG Version: 6.00 Build 0)  -->
<svg version="1.1" id="Capa_1" xmlns="http://www.w3.org/2000/svg" xmlns:xlink="http://www.w3.org/1999/xlink" x="0px" y="0px"
	 viewBox="0 0 179.7 163.9" style="enable-background:new 0 0 179.7 163.9;" xml:space="preserve">
<style type="text/css">
	.st0{fill:#FFFFFF;}
</style>
<g>
	<path class="st0" d="M171.1,125.7c-0.3,1.3-0.5,2.7-0.8,4c-3.6,15.7-16.9,26.6-33.1,26.6c-31.6,0.1-63.1,0.1-94.7,0
		c-16.9-0.1-30.4-11.7-33.4-28.4c-3.2-17.8,9.6-35.9,27.4-38.7c2.3-0.4,4.6-0.5,6.9-0.6c5.8-0.1,11.6,0,17.4,0c0.6,0,1.1,0,1.9,0
		c0-0.8,0-1.4,0-2c0-15,0-30,0-45c0.1-15.1,9.2-28,23.3-32.4c3.5-1.1,7.3-1.7,11-1.7c13.2-0.2,26.3-0.1,39.5-0.1
		c17.7,0,31.6,12.2,34.1,29.8c0,0.3,0.2,0.6,0.3,0.9C171.1,67.4,171.1,96.5,171.1,125.7z M69.6,142.8c0.9,0,1.4,0,1.9,0
		c21.7,0,43.3,0,65,0c12.2,0,21-8.8,21-21c0-8.5,0-17,0-25.5c0-18.2,0-36.5,0-54.7c0-11.8-8.9-20.6-20.7-20.6c-13.2,0-26.4,0-39.6,0
		c-2,0-4.1,0.3-6.1,0.8c-8.9,2.5-14.7,10.4-14.7,20c0,26.5,0,53.1-0.1,79.6c0,3.3-0.5,6.6-1.2,9.9C74.3,135.5,72.2,139.2,69.6,142.8
		z M62.6,102.2c-6.7,0-13.3,0-20,0c-13,0.1-22.4,11.6-20,24.4c1.9,9.7,10.8,16.6,20.9,16.2c9.8-0.4,18.4-8.2,19-17.9
		c0.5-7.4,0.2-14.8,0.2-22.2C62.8,102.6,62.7,102.5,62.6,102.2z"/>
	<path class="st0" d="M83.2,54.9c0-2.4-0.1-4.8,0-7.1c0.2-7.4,5.8-13,13.3-13.2c4.5-0.1,9.1-0.1,13.6,0c7.4,0.1,13,5.2,13.5,12.6
		c0.3,5.1,0.3,10.3,0,15.4c-0.4,7-5.4,12.1-12.4,12.5c-5.4,0.3-10.9,0.3-16.3-0.1c-6.4-0.5-11.4-6.1-11.7-12.5
		C83.1,59.9,83.2,57.4,83.2,54.9C83.2,54.9,83.2,54.9,83.2,54.9z M96.7,61.5c4.6,0,9,0,13.4,0c0-4.5,0-8.9,0-13.3
		c-4.5,0-8.9,0-13.4,0C96.7,52.7,96.7,57.1,96.7,61.5z"/>
	<path class="st0" d="M116.9,102.2c-9,0-18,0-27,0c-3.2,0-5.9-2.1-6.6-5.1c-0.8-3,0.6-6.2,3.5-7.6c1.1-0.5,2.3-0.8,3.5-0.8
		c17.8,0,35.5,0,53.3,0c4.2,0,7.2,2.9,7.2,6.8c0,3.9-3,6.7-7.2,6.8C134.7,102.2,125.8,102.2,116.9,102.2z"/>
	<path class="st0" d="M116.8,129.3c-8.9,0-17.9,0-26.8,0c-4.3,0-7.2-3.2-6.9-7.4c0.2-3.1,2.8-5.8,5.9-6.1c0.1,0,0.2,0,0.3,0
		c18.3,0,36.7,0,55,0c3.6,0,6.4,3.2,6.4,6.8c0,3.8-3,6.6-7,6.6C134.8,129.3,125.8,129.3,116.8,129.3z"/>
</g>
</svg>
