<?xml version="1.0" encoding="utf-8"?>
<!-- Generator: Adobe Illustrator 27.0.0, SVG Export Plug-In . SVG Version: 6.00 Build 0)  -->
<svg version="1.1" id="Capa_1" xmlns="http://www.w3.org/2000/svg" xmlns:xlink="http://www.w3.org/1999/xlink" x="0px" y="0px"
	 viewBox="0 0 40 40" style="enable-background:new 0 0 40 40;" xml:space="preserve">
<style type="text/css">
	.st0{fill:#FFFFFF;}
</style>
<g>
	<path class="st0" d="M28.9,33c-7.1,0-14.2,0-21.2,0C7.1,32.8,7,32.6,7,32C7,24,7,16,7,7.9C7,7.3,7.3,7,7.9,7c5.7,0,11.4,0,17.2,0
		c0.3,0,0.6,0.1,0.8,0.4c1,1.2,2.1,2.3,3.1,3.5c0.2,0.2,0.3,0.4,0.3,0.7c0,0.8,0,1.5,0,2.3c0,0.1,0,0.2,0,0.3c0.9,0,1.8,0,2.6,0
		c0.5,0,0.8,0.2,1,0.6c0,4.8,0,9.6,0,14.4c0,0,0,0.1,0,0.1c-0.3,1.6-1.2,2.8-2.7,3.3C29.8,32.9,29.4,32.9,28.9,33z M8.6,31.4
		c6.4,0,12.8,0,19.1,0c0-0.1,0-0.2,0-0.2c0-6.4,0-12.7,0-19.1c0-0.1-0.1-0.3-0.2-0.4c-0.8-1-1.7-1.9-2.5-2.8
		c-0.1-0.1-0.3-0.2-0.5-0.2c-5.2,0-10.5,0-15.7,0c-0.1,0-0.2,0-0.3,0C8.6,16.2,8.6,23.8,8.6,31.4z M29.4,15.8c0,5.2,0,10.3,0,15.5
		c1.2-0.3,2.1-1.3,2.1-2.7c0-4.2,0-8.4,0-12.5c0-0.1,0-0.2,0-0.3C30.7,15.8,30,15.8,29.4,15.8z"/>
	<path class="st0" d="M18.2,25c-2,0-4,0-6,0c-0.2,0-0.3,0-0.5-0.1c-0.3-0.1-0.5-0.4-0.5-0.8c0-0.3,0.2-0.7,0.5-0.7
		c0.1,0,0.3,0,0.4,0c4,0,8.1,0,12.1,0c0.5,0,0.8,0.2,0.9,0.6c0.1,0.4-0.2,0.9-0.6,1c-0.1,0-0.3,0-0.4,0C22.1,25,20.2,25,18.2,25z"/>
	<path class="st0" d="M18.1,28.3c-2,0-4,0-6,0c-0.1,0-0.3,0-0.4,0c-0.3-0.1-0.6-0.4-0.5-0.8c0-0.4,0.3-0.7,0.6-0.7
		c0.1,0,0.3,0,0.4,0c4,0,8,0,12,0c0.2,0,0.3,0,0.5,0.1c0.3,0.1,0.5,0.4,0.5,0.8c0,0.3-0.2,0.7-0.6,0.7c-0.1,0-0.3,0-0.4,0
		C22.2,28.3,20.2,28.3,18.1,28.3z"/>
	<path class="st0" d="M18.2,21.6c-2,0-4,0-6,0c-0.1,0-0.3,0-0.4,0c-0.4-0.1-0.6-0.4-0.6-0.8c0-0.4,0.3-0.7,0.7-0.7
		c0.1,0,0.2,0,0.3,0c4,0,8,0,12.1,0c0.1,0,0.3,0,0.4,0c0.4,0.1,0.6,0.5,0.6,0.8c0,0.4-0.3,0.7-0.7,0.7c-0.5,0-1.1,0-1.6,0
		C21.3,21.6,19.7,21.6,18.2,21.6z"/>
	<path class="st0" d="M14.5,14.1c-0.8,0-1.7,0-2.5,0c-0.6,0-1-0.5-0.8-1.1c0.1-0.3,0.4-0.5,0.7-0.5c1.7,0,3.4,0,5.2,0
		c0.5,0,0.8,0.3,0.8,0.8c0,0.5-0.3,0.8-0.8,0.8C16.3,14.1,15.4,14.1,14.5,14.1C14.5,14.1,14.5,14.1,14.5,14.1z"/>
</g>
</svg>
