<?xml version="1.0" encoding="utf-8"?>
<!-- Generator: Adobe Illustrator 27.0.0, SVG Export Plug-In . SVG Version: 6.00 Build 0)  -->
<svg version="1.1" id="Capa_1" xmlns="http://www.w3.org/2000/svg" xmlns:xlink="http://www.w3.org/1999/xlink" x="0px" y="0px"
	 viewBox="0 0 40 40" style="enable-background:new 0 0 40 40;" xml:space="preserve">
<style type="text/css">
	.st0{fill:#FFFFFF;}
</style>
<g id="Group">
	<path id="Path" class="st0" d="M28.6,20c0-4.8-4-8.7-8.7-8.7s-8.7,4-8.7,8.7c0,2.3,0.9,4.4,2.4,6c0.5,0.6,1.4,0.7,2,0.2
		c0.6-0.6,0.7-1.4,0.2-2c0-0.1-0.1-0.1-0.2-0.2c-2.3-2.3-2.2-6,0.2-8.3s6-2.2,8.2,0.2c2.2,2.3,2.2,5.8,0,8.1c-0.6,0.6-0.6,1.4,0,2
		l0,0c0.6,0.6,1.4,0.6,2,0l0,0C27.7,24.5,28.7,22.3,28.6,20z"/>
	<path id="Path_00000124863736375647475950000005824322705713596580_" class="st0" d="M20,5.5C12,5.5,5.5,12,5.6,20.1
		c0,4.8,2.4,9.3,6.4,12c0.6,0.5,1.5,0.2,2-0.4s0.2-1.5-0.4-2C8.2,26.1,6.8,19,10.3,13.6s10.7-6.8,16.1-3.2s6.8,10.7,3.2,16.1
		c-0.9,1.3-1.9,2.3-3.2,3.2c-0.6,0.5-0.9,1.4-0.4,2c0.5,0.6,1.4,0.9,2,0.4c6.6-4.5,8.4-13.5,4-20.2C29.2,7.9,24.8,5.5,20,5.5L20,5.5
		z"/>
	<path id="Path_00000159464879258278954730000000838862567921528997_" class="st0" d="M20,17.1c-1.6,0-2.9,1.4-2.9,2.9
		c0,1,0.6,1.9,1.4,2.4V33c-0.1,0.8,0.6,1.5,1.4,1.5c0.8,0,1.5-0.6,1.5-1.4c0-0.1,0-0.2,0-0.2V22.6c1.4-0.8,1.9-2.6,1-4
		C22,17.7,21,17.1,20,17.1z"/>
</g>
</svg>
