<?xml version="1.0" encoding="utf-8"?>
<!-- Generator: Adobe Illustrator 26.5.0, SVG Export Plug-In . SVG Version: 6.00 Build 0)  -->
<svg version="1.1" id="Capa_1" xmlns="http://www.w3.org/2000/svg" xmlns:xlink="http://www.w3.org/1999/xlink" x="0px" y="0px"
	 viewBox="0 0 300 68" style="enable-background:new 0 0 300 68;" xml:space="preserve">
<style type="text/css">
	.st0{fill:#FFFFFF;}
</style>
<g id="Page-1">
	<g id="logo-header" transform="translate(-1.000000, 0.000000)">
		<g id="Capa_2_00000160163757821949427220000005997499003967697087_" transform="translate(1.000000, 0.000000)">
			<g id="Group">
				<path id="Shape" class="st0" d="M33.1,51.6c-6.8-1-14.4-3.8-24.6-3.8c-2.3,0-5.4,0.2-8,0.7L0,47.3c3.1-1.8,8.1-5.4,8.1-13.1
					c0-3.1-1.2-6.4-2.5-9.8c-1.5-4.1-2.9-8-3.4-12C11.1,9.9,24.9,1.8,33.1,1.5c1.3,2.4,4,6.5,5,7.9l-1.1,1c-1.7-1.3-4.1-3.2-7.5-3.2
					c-1.4,0-2.3,0.1-3.2,0.5l-0.1,12.5c-0.1,8.7-2.7,12.2-14.7,18.6V39c7.8,0,16.8,2.6,20.1,2.6c3.2,0,5-0.7,7-4.3l1.4,0.8
					C38.1,41.6,35.1,47.6,33.1,51.6z M17.4,10c-1,0.4-3.2,1.3-3.8,1.7c-0.1,5.6-0.2,17.3-0.3,22.1l0.2,0.1c2.9-2.1,4-4.5,4-10.4
					L17.4,10z"/>
				<path id="Shape_00000038373608240113943660000000092843809782775228_" class="st0" d="M65.8,51.2l-6.7-5.4
					c-1.3,1.2-3.4,3.5-5.2,5.7c-3.2-1.9-7.4-4.1-11.5-6.3c0.7-1.3,1.3-3.7,1.4-6.2l0.1-9.3c0.1-2.1-0.2-4.3-0.7-5.4
					c3.2-2.2,9.8-8,11.2-9.6c5.3,1.6,8.5,2.5,13.8,3.5c-1,2.1-1.1,4.3-1.2,7l-0.3,16.1l5.4,3.4v0.1L65.8,51.2z M52,21.6h-0.2
					L52,41.5l6.2,2.6h0.2c0.2-2.2,0.4-14.3,0.6-20.8C57.3,23.1,54.2,22.4,52,21.6z"/>
				<polygon id="Path" class="st0" points="161.5,0.6 168.3,5.9 168.3,6 162,12.5 155.4,7.1 				"/>
				<path id="Shape_00000007416107025568747830000003996304629773513389_" class="st0" d="M125.1,13.7c-3.7,0-8-0.7-11.7-1.3
					l-0.1,13.1c0,2.9,0.4,5.1,1.5,6.4v0.2c-4,2.3-9.7,6.1-11.4,7.6c2.1,1.5,7.1,3.3,11.4,3.3c6.4,0,9.7-1.2,11.4-2.9l0.6,0.4
					l-3.4,10.1c-3.3,0.7-6.9,1.1-10.5,1.1c-14.2,0-25.4-8.7-25.4-20.9c0-8.4,7-13.9,17-19.4v-0.1c-0.7-0.1-8.2-0.8-10-0.8
					c-3,0-5.2,0.8-8.1,4.4l-0.9-0.5c2.8-4.5,4.7-7.6,7.4-12.1c11.7,0,21.2,2.4,26,2.4c6.7,0,8.6-0.9,9.8-1.9l0.4,0.1
					C128.7,3.9,125.1,13.7,125.1,13.7z M97.1,29.1c0,4.5,2.1,7.3,5,9.5c1.4-0.8,2.9-2.9,2.9-5.4l0.2-20.3
					C100.6,16.2,97.1,20.2,97.1,29.1z"/>
				<path id="Path_00000176735903118566205050000001410495119896320660_" class="st0" d="M146.2,31.7H146c-0.2-3.6-1.1-8-2.3-10.2
					l-2.6,2.3c0,1.5-0.2,4.3-0.2,7.5l-0.1,11.1c2.3,1,5.1,1.8,7.7,2.5v0.2l-6.2,6.6c-3.8-1.8-7.5-3.3-11.4-4.5
					c1-1.5,1.4-3.7,1.5-7.3l0.2-15.1c-2.1-1.6-4.5-3.6-5.2-4l6.3-6.2l7,6.7c2.1-1.6,8.8-6.7,8.8-6.7c2.1,2.9,3.4,6.7,3.9,11.5
					L146.2,31.7z"/>
				<path id="Path_00000024720255286425067910000002529760401016059022_" class="st0" d="M164.2,51.4c-2.4-2.2-6-5-7.8-6.2
					c1.9-1.8,2.5-4.2,2.6-6.8l0.2-14.7c-1.4-1.1-2.1-1.8-3.8-2.6c1.5-1.4,4.5-4.2,6.5-6.5c2.5,2,5.3,3.9,7.2,5.1
					c-1.1,1.6-1.4,3.9-1.4,6l-0.1,16.8c1.2,0.8,2.3,1.5,3.6,2.3v0.1C169.4,46.5,166,49.5,164.2,51.4z"/>
				<path id="Shape_00000049937417186627678160000017650042356236010407_" class="st0" d="M188.2,51.5c-4.4-2.4-8.8-4.7-13.9-5.4
					c1.3-1.8,1.5-4.8,1.5-9l-0.1-22.4c0-2.6-1-5.4-2.1-6.3c3.1-1.5,8.9-4.9,11.5-7.1l0.3,0.2c-1,2-1.5,5.1-1.5,9.4v8.4l6.6-4.5
					c2.1,1.5,6.7,4.2,9.8,5.6c-0.6,0.8-1,3.4-0.9,6l0.2,11.1c0.1,2.9,0.4,4.8,1.2,6C196.8,45.3,191.1,48.9,188.2,51.5z M191.1,24.1
					c-2.1-1.3-3.5-2.3-5.8-3.5l-1.3,0.7c-0.1,7-0.1,16.6-0.1,19.6c1.8,0.6,5.1,2.1,7.3,3.4h0.1C191.3,39.9,191.1,25,191.1,24.1z"/>
				<path id="Path_00000120545283369565341370000003362227890699703473_" class="st0" d="M228.3,51.3l-5.5-5.1l-4.3,5.1
					c-3.4-1.5-9.1-4.3-12.7-5.4c1.2-1.5,2-4.3,2-7.7l-0.1-14.8l-4-2.4l6.2-6.4c3.5,2.8,5.1,4,7.4,5.6c-0.5,0.8-1.1,2.9-1.1,4.9
					l-0.1,16.5l6.5,2.6l0.3-0.2c0.1-6.6,0.3-13.4,0.1-20c-0.7-0.6-1.8-1.5-3.1-2.3l6.4-7l6.5,5.6c-1,1.4-1.5,2.8-1.4,6.5l0.1,15.7
					c1.1,1,3.1,2.2,4,2.7v0.1L228.3,51.3z"/>
				<path id="Path_00000172421590944701569540000003138869294394889112_" class="st0" d="M260.3,51.2c-1.8-1.7-4.3-3.5-6.9-5.6
					c1.7-2.1,2.1-4.6,2.1-10.4l0.1-11.1c-1.3-0.6-5.2-1.8-7-1.8V43c0.7,0.4,2.1,1.6,3.2,2.1v0.1l-6.8,5.7c-1.9-1.7-5.4-4.1-7.3-5.3
					c1.9-1.2,2.6-3.3,2.6-7.3V24c-1.6-1.2-3.2-2.2-4.5-2.9c2.5-2.4,4-3.8,6.2-6.5c1.4,1.4,4.6,4.1,6.5,5.4c1.8-1.2,4.2-3.7,5.6-5.1
					c2.7,1.5,8.6,4.1,11.2,5.2c-0.7,1-1.2,3.2-1.2,6.9v15.3c1.3,1,2.5,1.8,3.8,2.7v0.1C265.8,46.8,262.7,49.2,260.3,51.2z"/>
				<path id="Shape_00000167368693978447577760000004089793000130978493_" class="st0" d="M293.7,51.2l-6.7-5.4
					c-1.3,1.2-3.4,3.5-5.2,5.7c-3.2-1.9-7.4-4.1-11.5-6.3c0.7-1.3,1.3-3.7,1.4-6.2l0.1-9.3c0.1-2.1-0.2-4.3-0.7-5.4
					c3.2-2.2,9.8-8,11.2-9.6c5.3,1.6,8.5,2.5,13.8,3.5c-1,2.1-1.1,4.3-1.2,7l-0.3,16.1l5.4,3.4v0.1L293.7,51.2z M279.9,21.6h-0.2
					l0.2,19.9l6.2,2.6h0.2c0.2-2.2,0.4-14.3,0.6-20.8C285.2,23.1,282,22.4,279.9,21.6z"/>
			</g>
			<g id="Group_00000054982501254022041050000011644357294212135091_" transform="translate(58.000000, 58.000000)">
				<path id="Path_00000081616334846055929430000006786122797371924899_" class="st0" d="M1.3,5.7h0.1h2.2v0.8h-2v1.7H4V9H0.5V3.2H4
					V4H1.6v1.6C1.5,5.7,1.3,5.7,1.3,5.7z"/>
				<polygon id="Path_00000158010962831661290770000017965039806914313608_" class="st0" points="5.9,3.3 7,3.3 7,8.2 9.4,8.2 
					9.4,9 6,9 6,3.3 				"/>
				<path id="Shape_00000076571104743771212710000006630886654973011339_" class="st0" d="M16.5,3.2c1.7,0,2.7,1.1,2.8,3
					c0,1.9-1.1,3-2.8,3c-0.8,0-1.5-0.2-2-0.2V3.2C15,3.3,15.7,3.2,16.5,3.2z M15.2,8.2c0,0,0.1,0,0.2,0c0.3,0.1,0.8,0.1,1.2,0.1
					c1,0,1.7-0.9,1.7-2.2s-0.6-2.2-1.7-2.2c-0.3,0-0.7,0-0.9,0V8C15.5,8.2,15.2,8.2,15.2,8.2z"/>
				<polygon id="Path_00000006699753637723165070000016063337270043438775_" class="st0" points="21.1,9.1 21.1,3.3 22.2,3.3 
					22.2,9.1 				"/>
				<path id="Shape_00000011739842179333905560000006399355390346231229_" class="st0" d="M25.2,3.3l1.7-0.1l1.6,5.9h-1.1L27,7.6
					h-1.9L24.7,9h-1.1L25.2,3.3z M27.1,6.8c0-0.1-0.4,0-0.4-0.1l-0.6-2.5h-0.2l-0.6,2.6H27.1z"/>
				<path id="Shape_00000160872028874071364760000006892905724080044954_" class="st0" d="M29.9,3.3c0.4,0,0.9-0.1,1.7-0.1
					c1.3,0,2.1,0.7,2.1,1.8c0,0.7-0.3,1.2-0.9,1.5c0.3,0.1,0.4,0.4,0.5,0.7l0.2,0.7c0.1,0.3,0.2,0.4,0.5,0.4v0.8
					c-0.9,0-1.2-0.3-1.5-1l-0.2-0.7c-0.2-0.5-0.3-0.7-0.7-0.7H31V9h-1.1V3.3z M31.7,6c0.6,0,1-0.3,1-1s-0.3-0.9-1-0.9
					c-0.3,0-0.4,0-0.6,0v1.8c-0.1,0-0.4,0-0.4,0s0.1,0,0.2,0L31.7,6L31.7,6z"/>
				<polygon id="Path_00000062184463831882002940000004089927757430234252_" class="st0" points="35.7,9.1 35.7,3.3 36.8,3.3 
					36.8,9.1 				"/>
				<path id="Shape_00000036953599078916523740000012930785049548534714_" class="st0" d="M38.6,6.2c0-1.8,1.1-3,2.8-3
					c1.7,0,2.8,1.2,2.8,3s-1.1,3-2.8,3C39.7,9.2,38.6,8,38.6,6.2z M43.1,6.2c0-1.3-0.7-2.2-1.7-2.2s-1.7,0.9-1.7,2.2
					s0.7,2.2,1.7,2.2S43.1,7.5,43.1,6.2z"/>
				<path id="Shape_00000003818063945255672990000000914548570310149281_" class="st0" d="M51.6,3.2c1.7,0,2.7,1.1,2.8,3
					c0,1.9-1.1,3-2.8,3c-0.8,0-1.5-0.2-2-0.2V3.2C50,3.3,50.8,3.2,51.6,3.2z M50.3,8.2c0,0,0.1,0,0.2,0c0.3,0.1,0.8,0.1,1.2,0.1
					c1,0,1.7-0.9,1.7-2.2s-0.6-2.2-1.7-2.2c-0.3,0-0.7,0-0.9,0V8C50.6,8.2,50.3,8.2,50.3,8.2z"/>
				<path id="Path_00000018228054353756326860000007652508735026086792_" class="st0" d="M56.8,5.7h0.1h2.2v0.8h-2v1.7h2.4V9H56V3.2
					h3.5V4h-2.4v1.6C57.1,5.7,56.8,5.7,56.8,5.7z"/>
				<polygon id="Path_00000010306005509910741620000009659052870047412903_" class="st0" points="65,3.3 66.1,3.3 66.1,8.2 
					68.5,8.2 68.5,9 65,9 				"/>
				<path id="Shape_00000005952974612130535580000017566061349888595385_" class="st0" d="M71,3.3l1.7-0.1l1.6,5.9h-1.1l-0.4-1.4
					h-1.9l-0.4,1.4h-1.1L71,3.3z M73,6.8c0-0.1-0.4,0-0.4-0.1L72,4.2h-0.2l-0.6,2.6H73z"/>
				<path id="Shape_00000010276232412057400460000008724711630161690513_" class="st0" d="M81.1,3.2c1.3,0,2,0.7,2,1.8
					s-0.8,1.9-2,1.9h-0.8v2.2h-1.1V3.3C79.8,3.3,80.4,3.2,81.1,3.2z M82.1,5c0-0.7-0.3-1-1-1c-0.3,0-0.5,0-0.7,0v2C80.3,6,80,6,80,6
					s0.1,0,0.2,0h1C81.8,6.1,82.1,5.7,82.1,5z"/>
				<path id="Shape_00000136391065377426515410000008563239783534767534_" class="st0" d="M84.8,3.3c0.4,0,0.9-0.1,1.7-0.1
					c1.3,0,2.1,0.7,2.1,1.8c0,0.7-0.3,1.2-0.9,1.5c0.3,0.1,0.4,0.4,0.5,0.7l0.2,0.7c0.1,0.3,0.2,0.4,0.5,0.4v0.8
					c-0.9,0-1.2-0.3-1.5-1l-0.2-0.7c-0.2-0.5-0.3-0.7-0.7-0.7h-0.7V9h-1.1V3.3H84.8z M86.6,6c0.6,0,1-0.3,1-1s-0.3-0.9-1-0.9
					c-0.3,0-0.4,0-0.6,0v1.8c-0.1,0-0.4,0-0.4,0s0.1,0,0.2,0L86.6,6L86.6,6z"/>
				<path id="Shape_00000070089048768281814910000011796589647324392624_" class="st0" d="M90.2,6.2c0-1.8,1.1-3,2.8-3
					s2.8,1.2,2.8,3s-1.1,3-2.8,3S90.2,8,90.2,6.2z M94.7,6.2C94.7,4.9,94,4,93,4s-1.7,0.9-1.7,2.2S92,8.4,93,8.4S94.7,7.5,94.7,6.2z
					"/>
				<path id="Path_00000142886329727231356500000013182105244957553837_" class="st0" d="M96.8,3.3H98l1.4,4.5
					c0,0.1-0.2,0.5-0.1,0.5l0.1-0.4l1.4-4.7h1.1L100,9h-1.2L96.8,3.3z"/>
				<polygon id="Path_00000005960496053355219240000004289118252654995388_" class="st0" points="103.5,9.1 103.5,3.3 104.6,3.3 
					104.6,9.1 				"/>
				<path id="Path_00000155837099383239153810000004634092652074516134_" class="st0" d="M111.5,9.1h-1l-2.7-4
					c-0.1-0.1,0-0.6-0.1-0.6c0,0,0,0.1,0,0.2V9h-1.1V3.2h1l2.8,4.1V3.2h1.1V9.1L111.5,9.1z"/>
				<path id="Path_00000102521534956699888230000002225423596426172305_" class="st0" d="M113.4,6.2c0-1.8,1.1-3,2.7-3
					c1.3,0,2.2,0.7,2.2,1.7c0,0.1,0,0.3-0.1,0.4l-1-0.2c0-0.1,0-0.1,0-0.2c0-0.6-0.4-0.9-1.1-0.9c-1,0-1.7,0.9-1.7,2.2
					s0.7,2.1,1.7,2.1c0.6,0,1.3-0.3,1.7-0.7l0.4,0.7c-0.6,0.5-1.5,0.8-2.2,0.8C114.5,9.2,113.4,8,113.4,6.2z"/>
				<polygon id="Path_00000008119105444338372070000010774142721746794119_" class="st0" points="119.9,9.1 119.9,3.3 121,3.3 
					121,9.1 				"/>
				<path id="Shape_00000140005030447605292710000006340552506362025600_" class="st0" d="M124,3.3l1.7-0.1l1.6,5.9h-1.1l-0.4-1.4
					h-1.9l-0.4,1.4h-1.1L124,3.3z M126,6.8c0-0.1-0.4,0-0.4-0.1L125,4.2h-0.2l-0.6,2.6H126z"/>
				<path id="Shape_00000014610248420752725590000006455062881326534821_" class="st0" d="M134.3,3.2c1.7,0,2.7,1.1,2.8,3
					c0,1.9-1.1,3-2.8,3c-0.8,0-1.5-0.2-2-0.2V3.2C132.7,3.3,133.5,3.2,134.3,3.2z M133,8.2c0,0,0.1,0,0.2,0c0.3,0.1,0.8,0.1,1.2,0.1
					c1,0,1.7-0.9,1.7-2.2s-0.6-2.2-1.7-2.2c-0.3,0-0.7,0-0.9,0V8C133.2,8.2,133,8.2,133,8.2z"/>
				<path id="Path_00000102543895835054282340000013040705046216114105_" class="st0" d="M139.5,5.7h0.1h2.2v0.8h-2v1.7h2.4V9h-3.5
					V3.2h3.5V4h-2.4v1.6C139.8,5.7,139.5,5.7,139.5,5.7z"/>
				<path id="Shape_00000121975900861282678460000011382244479048875196_" class="st0" d="M148.8,9.1V3.3c0.5,0,1-0.1,1.8-0.1
					c1.3,0,2,0.6,2,1.6c0,0.6-0.3,1-0.8,1.3c0.7,0.3,1.1,0.8,1.1,1.4c0,1.1-0.9,1.8-2.2,1.8C150.1,9.2,149.4,9.1,148.8,9.1z
					 M150.7,5.7c0.5,0,0.9-0.4,0.9-0.9s-0.4-0.8-1-0.8c-0.3,0-0.5,0-0.7,0.1v1.6c-0.1,0-0.4,0-0.4,0s0.1,0,0.2,0H150.7L150.7,5.7z
					 M151.9,7.4c0-0.6-0.4-0.9-1.2-0.9h-0.9v1.8c0.3,0,0.6,0.1,0.9,0.1C151.5,8.4,151.9,8,151.9,7.4z"/>
				<polygon id="Path_00000102539634700671418970000005508009341090863236_" class="st0" points="154.7,9.1 154.7,3.3 155.8,3.3 
					155.8,9.1 				"/>
				<path id="Shape_00000125566105690443026080000010466144913030234787_" class="st0" d="M157.6,6.2c0-1.8,1.1-3,2.8-3
					c1.7,0,2.8,1.2,2.8,3s-1.1,3-2.8,3C158.7,9.2,157.6,8,157.6,6.2z M162.1,6.2c0-1.3-0.7-2.2-1.7-2.2s-1.7,0.9-1.7,2.2
					s0.7,2.2,1.7,2.2S162.1,7.5,162.1,6.2z"/>
				<path id="Shape_00000096032160309878532700000006881809192332520069_" class="st0" d="M165,9.1V3.3c0.5,0,1-0.1,1.8-0.1
					c1.3,0,2,0.6,2,1.6c0,0.6-0.3,1-0.8,1.3c0.7,0.3,1.1,0.8,1.1,1.4c0,1.1-0.9,1.8-2.2,1.8C166.4,9.2,165.6,9.1,165,9.1z
					 M166.9,5.7c0.5,0,0.9-0.4,0.9-0.9s-0.4-0.8-1-0.8c-0.3,0-0.5,0-0.7,0.1v1.6c-0.1,0-0.4,0-0.4,0s0.1,0,0.2,0H166.9L166.9,5.7z
					 M168.2,7.4c0-0.6-0.4-0.9-1.2-0.9h-0.9v1.8c0.3,0,0.6,0.1,0.9,0.1C167.7,8.4,168.2,8,168.2,7.4z"/>
				<path id="Shape_00000040548746337196936140000016497652462272445568_" class="st0" d="M170.5,1.8l1.7-1.5l0.6,0.8L171,2.3
					L170.5,1.8z M170.9,9.1V3.3h1.1v5.8H170.9z"/>
				<path id="Shape_00000059268975394216466240000010331921823331999154_" class="st0" d="M173.8,6.2c0-1.8,1.1-3,2.8-3
					c1.7,0,2.8,1.2,2.8,3s-1.1,3-2.8,3C174.9,9.2,173.8,8,173.8,6.2z M178.4,6.2c0-1.3-0.7-2.2-1.7-2.2S175,4.9,175,6.2
					s0.7,2.2,1.7,2.2S178.4,7.5,178.4,6.2z"/>
			</g>
		</g>
	</g>
</g>
</svg>
