<?xml version="1.0" encoding="UTF-8"?>
<svg width="300px" height="68px" viewBox="0 0 300 68" version="1.1" xmlns="http://www.w3.org/2000/svg" xmlns:xlink="http://www.w3.org/1999/xlink">
    <!-- Generator: Sketch 54.1 (76490) - https://sketchapp.com -->
    <title>logo-header</title>
    <desc>Created with Sketch.</desc>
    <g id="Page-1" stroke="none" stroke-width="1" fill="none" fill-rule="evenodd">
        <g id="logo-header" transform="translate(-1.000000, 0.000000)" fill="#003168" fill-rule="nonzero">
            <g id="Capa_2" transform="translate(1.000000, 0.000000)">
                <g id="Group">
                    <path d="M33.1,51.6 C26.3,50.6 18.7,47.8 8.5,47.8 C6.2,47.8 3.1,48 0.5,48.5 L0,47.3 C3.1,45.5 8.1,41.9 8.1,34.2 C8.1,31.1 6.9,27.8 5.6,24.4 C4.1,20.3 2.7,16.4 2.2,12.4 C11.1,9.9 24.9,1.8 33.1,1.5 C34.4,3.9 37.1,8 38.1,9.4 L37,10.4 C35.3,9.1 32.9,7.2 29.5,7.2 C28.1,7.2 27.2,7.3 26.3,7.7 L26.2,20.2 C26.1,28.9 23.5,32.4 11.5,38.8 L11.5,39 C19.3,39 28.3,41.6 31.6,41.6 C34.8,41.6 36.6,40.9 38.6,37.3 L40,38.1 C38.1,41.6 35.1,47.6 33.1,51.6 Z M17.4,10 C16.4,10.4 14.2,11.3 13.6,11.7 C13.5,17.3 13.4,29 13.3,33.8 L13.5,33.9 C16.4,31.8 17.5,29.4 17.5,23.5 L17.4,10 Z" id="Shape"></path>
                    <path d="M65.8,51.2 L59.1,45.8 C57.8,47 55.7,49.3 53.9,51.5 C50.7,49.6 46.5,47.4 42.4,45.2 C43.1,43.9 43.7,41.5 43.8,39 L43.9,29.7 C44,27.6 43.7,25.4 43.2,24.3 C46.4,22.1 53,16.3 54.4,14.7 C59.7,16.3 62.9,17.2 68.2,18.2 C67.2,20.3 67.1,22.5 67,25.2 L66.7,41.3 L72.1,44.7 L72.1,44.8 L65.8,51.2 Z M52,21.6 L51.8,21.6 L52,41.5 L58.2,44.1 L58.4,44.1 C58.6,41.9 58.8,29.8 59,23.3 C57.3,23.1 54.2,22.4 52,21.6 Z" id="Shape"></path>
                    <polygon id="Path" points="161.5 0.6 168.3 5.9 168.3 6 162 12.5 155.4 7.1"></polygon>
                    <path d="M125.1,13.7 C121.4,13.7 117.1,13 113.4,12.4 L113.3,25.5 C113.3,28.4 113.7,30.6 114.8,31.9 L114.8,32.1 C110.8,34.4 105.1,38.2 103.4,39.7 C105.5,41.2 110.5,43 114.8,43 C121.2,43 124.5,41.8 126.2,40.1 L126.8,40.5 L123.4,50.6 C120.1,51.3 116.5,51.7 112.9,51.7 C98.7,51.7 87.5,43 87.5,30.8 C87.5,22.4 94.5,16.9 104.5,11.4 L104.5,11.3 C103.8,11.2 96.3,10.5 94.5,10.5 C91.5,10.5 89.3,11.3 86.4,14.9 L85.5,14.4 C88.3,9.9 90.2,6.8 92.9,2.3 C104.6,2.3 114.1,4.7 118.9,4.7 C125.6,4.7 127.5,3.8 128.7,2.8 L129.1,2.9 C128.7,3.9 125.1,13.7 125.1,13.7 Z M97.1,29.1 C97.1,33.6 99.2,36.4 102.1,38.6 C103.5,37.8 105,35.7 105,33.2 L105.2,12.9 C100.6,16.2 97.1,20.2 97.1,29.1 Z" id="Shape"></path>
                    <path d="M146.2,31.7 L146,31.7 C145.8,28.1 144.9,23.7 143.7,21.5 L141.1,23.8 C141.1,25.3 140.9,28.1 140.9,31.3 L140.8,42.4 C143.1,43.4 145.9,44.2 148.5,44.9 L148.5,45.1 L142.3,51.7 C138.5,49.9 134.8,48.4 130.9,47.2 C131.9,45.7 132.3,43.5 132.4,39.9 L132.6,24.8 C130.5,23.2 128.1,21.2 127.4,20.8 L133.7,14.6 L140.7,21.3 C142.8,19.7 149.5,14.6 149.5,14.6 C151.6,17.5 152.9,21.3 153.4,26.1 L146.2,31.7 Z" id="Path"></path>
                    <path d="M164.2,51.4 C161.8,49.2 158.2,46.4 156.4,45.2 C158.3,43.4 158.9,41 159,38.4 L159.2,23.7 C157.8,22.6 157.1,21.9 155.4,21.1 C156.9,19.7 159.9,16.9 161.9,14.6 C164.4,16.6 167.2,18.5 169.1,19.7 C168,21.3 167.7,23.6 167.7,25.7 L167.6,42.5 C168.8,43.3 169.9,44 171.2,44.8 L171.2,44.9 C169.4,46.5 166,49.5 164.2,51.4 Z" id="Path"></path>
                    <path d="M188.2,51.5 C183.8,49.1 179.4,46.8 174.3,46.1 C175.6,44.3 175.8,41.3 175.8,37.1 L175.7,14.7 C175.7,12.1 174.7,9.3 173.6,8.4 C176.7,6.9 182.5,3.5 185.1,1.3 L185.4,1.5 C184.4,3.5 183.9,6.6 183.9,10.9 L183.9,19.3 L190.5,14.8 C192.6,16.3 197.2,19 200.3,20.4 C199.7,21.2 199.3,23.8 199.4,26.4 L199.6,37.5 C199.7,40.4 200,42.3 200.8,43.5 C196.8,45.3 191.1,48.9 188.2,51.5 Z M191.1,24.1 C189,22.8 187.6,21.8 185.3,20.6 L184,21.3 C183.9,28.3 183.9,37.9 183.9,40.9 C185.7,41.5 189,43 191.2,44.3 L191.3,44.3 C191.3,39.9 191.1,25 191.1,24.1 Z" id="Shape"></path>
                    <path d="M228.3,51.3 L222.8,46.2 L218.5,51.3 C215.1,49.8 209.4,47 205.8,45.9 C207,44.4 207.8,41.6 207.8,38.2 L207.7,23.4 L203.7,21 L209.9,14.6 C213.4,17.4 215,18.6 217.3,20.2 C216.8,21 216.2,23.1 216.2,25.1 L216.1,41.6 L222.6,44.2 L222.9,44 C223,37.4 223.2,30.6 223,24 C222.3,23.4 221.2,22.5 219.9,21.7 L226.3,14.7 L232.8,20.3 C231.8,21.7 231.3,23.1 231.4,26.8 L231.5,42.5 C232.6,43.5 234.6,44.7 235.5,45.2 L235.5,45.3 L228.3,51.3 Z" id="Path"></path>
                    <path d="M260.3,51.2 C258.5,49.5 256,47.7 253.4,45.6 C255.1,43.5 255.5,41 255.5,35.2 L255.6,24.1 C254.3,23.5 250.4,22.3 248.6,22.3 L248.6,43 C249.3,43.4 250.7,44.6 251.8,45.1 L251.8,45.2 L245,50.9 C243.1,49.2 239.6,46.8 237.7,45.6 C239.6,44.4 240.3,42.3 240.3,38.3 L240.3,24 C238.7,22.8 237.1,21.8 235.8,21.1 C238.3,18.7 239.8,17.3 242,14.6 C243.4,16 246.6,18.7 248.5,20 C250.3,18.8 252.7,16.3 254.1,14.9 C256.8,16.4 262.7,19 265.3,20.1 C264.6,21.1 264.1,23.3 264.1,27 L264.1,42.3 C265.4,43.3 266.6,44.1 267.9,45 L267.9,45.1 C265.8,46.8 262.7,49.2 260.3,51.2 Z" id="Path"></path>
                    <path d="M293.7,51.2 L287,45.8 C285.7,47 283.6,49.3 281.8,51.5 C278.6,49.6 274.4,47.4 270.3,45.2 C271,43.9 271.6,41.5 271.7,39 L271.8,29.7 C271.9,27.6 271.6,25.4 271.1,24.3 C274.3,22.1 280.9,16.3 282.3,14.7 C287.6,16.3 290.8,17.2 296.1,18.2 C295.1,20.3 295,22.5 294.9,25.2 L294.6,41.3 L300,44.7 L300,44.8 L293.7,51.2 Z M279.9,21.6 L279.7,21.6 L279.9,41.5 L286.1,44.1 L286.3,44.1 C286.5,41.9 286.7,29.8 286.9,23.3 C285.2,23.1 282,22.4 279.9,21.6 Z" id="Shape"></path>
                </g>
                <g id="Group" transform="translate(58.000000, 58.000000)">
                    <path d="M1.3,5.7 C1.3,5.7 1.4,5.7 1.4,5.7 L3.6,5.7 L3.6,6.5 L1.6,6.5 L1.6,8.2 L4,8.2 L4,9 L0.5,9 L0.5,3.2 L4,3.2 L4,4 L1.6,4 L1.6,5.6 C1.5,5.7 1.3,5.7 1.3,5.7 Z" id="Path"></path>
                    <polygon id="Path" points="5.9 3.3 7 3.3 7 8.2 9.4 8.2 9.4 9 6 9 6 3.3"></polygon>
                    <path d="M16.5,3.2 C18.2,3.2 19.2,4.3 19.3,6.2 C19.3,8.1 18.2,9.2 16.5,9.2 C15.7,9.2 15,9 14.5,9 L14.5,3.2 C15,3.3 15.7,3.2 16.5,3.2 Z M15.2,8.2 C15.2,8.2 15.3,8.2 15.4,8.2 C15.7,8.3 16.2,8.3 16.6,8.3 C17.6,8.3 18.3,7.4 18.3,6.1 C18.3,4.8 17.7,3.9 16.6,3.9 C16.3,3.9 15.9,3.9 15.7,3.9 L15.7,8 C15.5,8.2 15.2,8.2 15.2,8.2 Z" id="Shape"></path>
                    <polygon id="Path" points="21.1 9.1 21.1 3.3 22.2 3.3 22.2 9.1"></polygon>
                    <path d="M25.2,3.3 L26.9,3.2 L28.5,9.1 L27.4,9.1 L27,7.6 L25.1,7.6 L24.7,9 L23.6,9 L25.2,3.3 Z M27.1,6.8 C27.1,6.7 26.7,6.8 26.7,6.7 L26.1,4.2 L25.9,4.2 L25.3,6.8 L27.1,6.8 Z" id="Shape"></path>
                    <path d="M29.9,3.3 C30.3,3.3 30.8,3.2 31.6,3.2 C32.9,3.2 33.7,3.9 33.7,5 C33.7,5.7 33.4,6.2 32.8,6.5 C33.1,6.6 33.2,6.9 33.3,7.2 L33.5,7.9 C33.6,8.2 33.7,8.3 34,8.3 L34,9.1 C33.1,9.1 32.8,8.8 32.5,8.1 L32.3,7.4 C32.1,6.9 32,6.7 31.6,6.7 L31,6.7 L31,9 L29.9,9 L29.9,3.3 Z M31.7,6 C32.3,6 32.7,5.7 32.7,5 C32.7,4.3 32.4,4.1 31.7,4.1 C31.4,4.1 31.3,4.1 31.1,4.1 L31.1,5.9 C31,5.9 30.7,5.9 30.7,5.9 C30.7,5.9 30.8,5.9 30.9,5.9 L31.7,5.9 L31.7,6 Z" id="Shape"></path>
                    <polygon id="Path" points="35.7 9.1 35.7 3.3 36.8 3.3 36.8 9.1"></polygon>
                    <path d="M38.6,6.2 C38.6,4.4 39.7,3.2 41.4,3.2 C43.1,3.2 44.2,4.4 44.2,6.2 C44.2,8 43.1,9.2 41.4,9.2 C39.7,9.2 38.6,8 38.6,6.2 Z M43.1,6.2 C43.1,4.9 42.4,4 41.4,4 C40.4,4 39.7,4.9 39.7,6.2 C39.7,7.5 40.4,8.4 41.4,8.4 C42.4,8.4 43.1,7.5 43.1,6.2 Z" id="Shape"></path>
                    <path d="M51.6,3.2 C53.3,3.2 54.3,4.3 54.4,6.2 C54.4,8.1 53.3,9.2 51.6,9.2 C50.8,9.2 50.1,9 49.6,9 L49.6,3.2 C50,3.3 50.8,3.2 51.6,3.2 Z M50.3,8.2 C50.3,8.2 50.4,8.2 50.5,8.2 C50.8,8.3 51.3,8.3 51.7,8.3 C52.7,8.3 53.4,7.4 53.4,6.1 C53.4,4.8 52.8,3.9 51.7,3.9 C51.4,3.9 51,3.9 50.8,3.9 L50.8,8 C50.6,8.2 50.3,8.2 50.3,8.2 Z" id="Shape"></path>
                    <path d="M56.8,5.7 C56.8,5.7 56.9,5.7 56.9,5.7 L59.1,5.7 L59.1,6.5 L57.1,6.5 L57.1,8.2 L59.5,8.2 L59.5,9 L56,9 L56,3.2 L59.5,3.2 L59.5,4 L57.1,4 L57.1,5.6 C57.1,5.7 56.8,5.7 56.8,5.7 Z" id="Path"></path>
                    <polygon id="Path" points="65 3.3 66.1 3.3 66.1 8.2 68.5 8.2 68.5 9 65 9"></polygon>
                    <path d="M71,3.3 L72.7,3.2 L74.3,9.1 L73.2,9.1 L72.8,7.7 L70.9,7.7 L70.5,9.1 L69.4,9.1 L71,3.3 Z M73,6.8 C73,6.7 72.6,6.8 72.6,6.7 L72,4.2 L71.8,4.2 L71.2,6.8 L73,6.8 Z" id="Shape"></path>
                    <path d="M81.1,3.2 C82.4,3.2 83.1,3.9 83.1,5 C83.1,6.1 82.3,6.9 81.1,6.9 L80.3,6.9 L80.3,9.1 L79.2,9.1 L79.2,3.3 C79.8,3.3 80.4,3.2 81.1,3.2 Z M82.1,5 C82.1,4.3 81.8,4 81.1,4 C80.8,4 80.6,4 80.4,4 L80.4,6 C80.3,6 80,6 80,6 C80,6 80.1,6 80.2,6 L81.2,6 C81.8,6.1 82.1,5.7 82.1,5 Z" id="Shape"></path>
                    <path d="M84.8,3.3 C85.2,3.3 85.7,3.2 86.5,3.2 C87.8,3.2 88.6,3.9 88.6,5 C88.6,5.7 88.3,6.2 87.7,6.5 C88,6.6 88.1,6.9 88.2,7.2 L88.4,7.9 C88.5,8.2 88.6,8.3 88.9,8.3 L88.9,9.1 C88,9.1 87.7,8.8 87.4,8.1 L87.2,7.4 C87,6.9 86.9,6.7 86.5,6.7 L85.8,6.7 L85.8,9 L84.7,9 L84.7,3.3 L84.8,3.3 Z M86.6,6 C87.2,6 87.6,5.7 87.6,5 C87.6,4.3 87.3,4.1 86.6,4.1 C86.3,4.1 86.2,4.1 86,4.1 L86,5.9 C85.9,5.9 85.6,5.9 85.6,5.9 C85.6,5.9 85.7,5.9 85.8,5.9 L86.6,5.9 L86.6,6 Z" id="Shape"></path>
                    <path d="M90.2,6.2 C90.2,4.4 91.3,3.2 93,3.2 C94.7,3.2 95.8,4.4 95.8,6.2 C95.8,8 94.7,9.2 93,9.2 C91.3,9.2 90.2,8 90.2,6.2 Z M94.7,6.2 C94.7,4.9 94,4 93,4 C92,4 91.3,4.9 91.3,6.2 C91.3,7.5 92,8.4 93,8.4 C94,8.4 94.7,7.5 94.7,6.2 Z" id="Shape"></path>
                    <path d="M96.8,3.3 L98,3.3 L99.4,7.8 C99.4,7.9 99.2,8.3 99.3,8.3 L99.4,7.9 L100.8,3.2 L101.9,3.2 L100,9 L98.8,9 L96.8,3.3 Z" id="Path"></path>
                    <polygon id="Path" points="103.5 9.1 103.5 3.3 104.6 3.3 104.6 9.1"></polygon>
                    <path d="M111.5,9.1 L110.5,9.1 L107.8,5.1 C107.7,5 107.8,4.5 107.7,4.5 C107.7,4.5 107.7,4.6 107.7,4.7 L107.7,9 L106.6,9 L106.6,3.2 L107.6,3.2 L110.4,7.3 L110.4,3.2 L111.5,3.2 L111.5,9.1 L111.5,9.1 Z" id="Path"></path>
                    <path d="M113.4,6.2 C113.4,4.4 114.5,3.2 116.1,3.2 C117.4,3.2 118.3,3.9 118.3,4.9 C118.3,5 118.3,5.2 118.2,5.3 L117.2,5.1 C117.2,5 117.2,5 117.2,4.9 C117.2,4.3 116.8,4 116.1,4 C115.1,4 114.4,4.9 114.4,6.2 C114.4,7.5 115.1,8.3 116.1,8.3 C116.7,8.3 117.4,8 117.8,7.6 L118.2,8.3 C117.6,8.8 116.7,9.1 116,9.1 C114.5,9.2 113.4,8 113.4,6.2 Z" id="Path"></path>
                    <polygon id="Path" points="119.9 9.1 119.9 3.3 121 3.3 121 9.1"></polygon>
                    <path d="M124,3.3 L125.7,3.2 L127.3,9.1 L126.2,9.1 L125.8,7.7 L123.9,7.7 L123.5,9.1 L122.4,9.1 L124,3.3 Z M126,6.8 C126,6.7 125.6,6.8 125.6,6.7 L125,4.2 L124.8,4.2 L124.2,6.8 L126,6.8 Z" id="Shape"></path>
                    <path d="M134.3,3.2 C136,3.2 137,4.3 137.1,6.2 C137.1,8.1 136,9.2 134.3,9.2 C133.5,9.2 132.8,9 132.3,9 L132.3,3.2 C132.7,3.3 133.5,3.2 134.3,3.2 Z M133,8.2 C133,8.2 133.1,8.2 133.2,8.2 C133.5,8.3 134,8.3 134.4,8.3 C135.4,8.3 136.1,7.4 136.1,6.1 C136.1,4.8 135.5,3.9 134.4,3.9 C134.1,3.9 133.7,3.9 133.5,3.9 L133.5,8 C133.2,8.2 133,8.2 133,8.2 Z" id="Shape"></path>
                    <path d="M139.5,5.7 C139.5,5.7 139.6,5.7 139.6,5.7 L141.8,5.7 L141.8,6.5 L139.8,6.5 L139.8,8.2 L142.2,8.2 L142.2,9 L138.7,9 L138.7,3.2 L142.2,3.2 L142.2,4 L139.8,4 L139.8,5.6 C139.8,5.7 139.5,5.7 139.5,5.7 Z" id="Path"></path>
                    <path d="M148.8,9.1 L148.8,3.3 C149.3,3.3 149.8,3.2 150.6,3.2 C151.9,3.2 152.6,3.8 152.6,4.8 C152.6,5.4 152.3,5.8 151.8,6.1 C152.5,6.4 152.9,6.9 152.9,7.5 C152.9,8.6 152,9.3 150.7,9.3 C150.1,9.2 149.4,9.1 148.8,9.1 Z M150.7,5.7 C151.2,5.7 151.6,5.3 151.6,4.8 C151.6,4.3 151.2,4 150.6,4 C150.3,4 150.1,4 149.9,4.1 L149.9,5.7 C149.8,5.7 149.5,5.7 149.5,5.7 C149.5,5.7 149.6,5.7 149.7,5.7 L150.7,5.7 L150.7,5.7 Z M151.9,7.4 C151.9,6.8 151.5,6.5 150.7,6.5 L149.8,6.5 L149.8,8.3 C150.1,8.3 150.4,8.4 150.7,8.4 C151.5,8.4 151.9,8 151.9,7.4 Z" id="Shape"></path>
                    <polygon id="Path" points="154.7 9.1 154.7 3.3 155.8 3.3 155.8 9.1"></polygon>
                    <path d="M157.6,6.2 C157.6,4.4 158.7,3.2 160.4,3.2 C162.1,3.2 163.2,4.4 163.2,6.2 C163.2,8 162.1,9.2 160.4,9.2 C158.7,9.2 157.6,8 157.6,6.2 Z M162.1,6.2 C162.1,4.9 161.4,4 160.4,4 C159.4,4 158.7,4.9 158.7,6.2 C158.7,7.5 159.4,8.4 160.4,8.4 C161.4,8.4 162.1,7.5 162.1,6.2 Z" id="Shape"></path>
                    <path d="M165,9.1 L165,3.3 C165.5,3.3 166,3.2 166.8,3.2 C168.1,3.2 168.8,3.8 168.8,4.8 C168.8,5.4 168.5,5.8 168,6.1 C168.7,6.4 169.1,6.9 169.1,7.5 C169.1,8.6 168.2,9.3 166.9,9.3 C166.4,9.2 165.6,9.1 165,9.1 Z M166.9,5.7 C167.4,5.7 167.8,5.3 167.8,4.8 C167.8,4.3 167.4,4 166.8,4 C166.5,4 166.3,4 166.1,4.1 L166.1,5.7 C166,5.7 165.7,5.7 165.7,5.7 C165.7,5.7 165.8,5.7 165.9,5.7 L166.9,5.7 L166.9,5.7 Z M168.2,7.4 C168.2,6.8 167.8,6.5 167,6.5 L166.1,6.5 L166.1,8.3 C166.4,8.3 166.7,8.4 167,8.4 C167.7,8.4 168.2,8 168.2,7.4 Z" id="Shape"></path>
                    <path d="M170.5,1.8 L172.2,0.3 L172.8,1.1 L171,2.3 L170.5,1.8 Z M170.9,9.1 L170.9,3.3 L172,3.3 L172,9.1 L170.9,9.1 Z" id="Shape"></path>
                    <path d="M173.8,6.2 C173.8,4.4 174.9,3.2 176.6,3.2 C178.3,3.2 179.4,4.4 179.4,6.2 C179.4,8 178.3,9.2 176.6,9.2 C174.9,9.2 173.8,8 173.8,6.2 Z M178.4,6.2 C178.4,4.9 177.7,4 176.7,4 C175.7,4 175,4.9 175,6.2 C175,7.5 175.7,8.4 176.7,8.4 C177.7,8.4 178.4,7.5 178.4,6.2 Z" id="Shape"></path>
                </g>
            </g>
        </g>
    </g>
</svg>