<?xml version="1.0" encoding="utf-8"?>
<!-- Generator: Adobe Illustrator 27.0.1, SVG Export Plug-In . SVG Version: 6.00 Build 0)  -->
<svg version="1.1" id="Capa_1" xmlns="http://www.w3.org/2000/svg" xmlns:xlink="http://www.w3.org/1999/xlink" x="0px" y="0px"
	 viewBox="0 0 40 40" style="enable-background:new 0 0 40 40;" xml:space="preserve">
<style type="text/css">
	.st0{fill:#FFFFFF;}
</style>
<g>
	<path class="st0" d="M31.7,22.2c-0.7,0.3-1.3,0.6-1.9,0.9c-3,1.4-6.1,2.7-9.1,4.1c-0.5,0.2-1,0.2-1.6,0c-3.6-1.6-7.1-3.2-10.7-4.8
		c-0.1,0-0.2-0.1-0.3-0.1c0,0.1,0,0.2,0,0.3c0,1.4,0,2.9,0,4.3c0,0.1,0,0.2,0,0.3c0,0.3-0.3,0.6-0.6,0.6c-0.3,0-0.6-0.2-0.6-0.5
		c0-0.1,0-0.2,0-0.2c0-3,0-6,0-9.1c0-0.7,0.3-1.3,1-1.6c0.8-0.4,1.6-0.8,2.3-1.2c0.2-0.1,0.2-0.2,0.2-0.4c0-1.6,0-3.2,0-4.7
		c0-1,0.6-1.6,1.6-1.6c4.3,0,8.6,0,12.9,0c0.1,0,0.1,0,0.2,0c0.3,0,0.5,0.2,0.5,0.5c0,0.3-0.2,0.6-0.5,0.6c-0.1,0-0.2,0-0.3,0
		c-4.3,0-8.5,0-12.8,0c-0.4,0-0.5,0.1-0.5,0.5c0,4.1,0,8.2,0,12.2c0,0.2,0.1,0.3,0.3,0.4c2.6,1.2,5.2,2.3,7.7,3.5
		c0.1,0.1,0.4,0.1,0.5,0c2.6-1.2,5.2-2.3,7.8-3.5c0.2-0.1,0.2-0.2,0.2-0.3c0-4.1,0-8.2,0-12.4c0-0.4-0.1-0.4-0.4-0.4
		c-0.2,0-0.5,0-0.7,0c-0.4,0-0.6-0.3-0.6-0.6c0-0.3,0.3-0.6,0.6-0.6c0.3,0,0.6,0,0.9,0c0.7,0,1.3,0.6,1.4,1.2c0,0.1,0,0.3,0,0.4
		c0,1.6,0,3.1,0,4.7c0,0.2,0.1,0.3,0.2,0.4c0.8,0.4,1.6,0.8,2.3,1.2c0.7,0.3,1,0.8,0.9,1.6c0,4.5,0,9,0,13.5c0,1-0.6,1.6-1.6,1.6
		c-7.5,0-15.1,0-22.6,0C7.6,33,7,32.4,7,31.3c0-0.2,0-0.5,0-0.7c0-0.4,0.3-0.6,0.6-0.6c0.3,0,0.6,0.2,0.6,0.6c0,0.3,0,0.5,0,0.8
		c0,0.3,0.1,0.4,0.4,0.4c0.1,0,0.1,0,0.2,0c7.4,0,14.9,0,22.3,0c0.1,0,0.2,0,0.3,0c0.2,0,0.3-0.1,0.3-0.3c0,0,0-0.1,0-0.1
		c0-3,0-5.9,0-8.9C31.7,22.4,31.7,22.3,31.7,22.2z M10.5,16.3c-0.7,0.4-1.5,0.8-2.2,1.1c-0.1,0-0.2,0.2-0.2,0.3c0,1,0,2,0,3
		c0,0.1,0,0.2,0.1,0.2c0.7,0.3,1.5,0.7,2.2,1C10.5,20,10.5,18.2,10.5,16.3z M29.4,22c0.8-0.3,1.5-0.7,2.2-1c0.1,0,0.1-0.2,0.1-0.2
		c0-1,0-2,0-2.9c0-0.2-0.1-0.3-0.3-0.4c-0.4-0.2-0.8-0.4-1.2-0.6c-0.3-0.1-0.5-0.3-0.8-0.4C29.4,18.2,29.4,20,29.4,22z"/>
	<path class="st0" d="M19.7,11.2c1.9,0,3.7,0,5.6,0c0.1,0,0.2,0,0.2,0c0.4,0,0.6,0.2,0.6,0.6c0,0.4-0.3,0.6-0.7,0.6
		c-1.6,0-3.2,0-4.8,0c-2.2,0-4.4,0-6.7,0c-0.2,0-0.4,0-0.5-0.1c-0.2-0.1-0.3-0.3-0.2-0.6c0.1-0.3,0.2-0.4,0.5-0.5c0.1,0,0.2,0,0.3,0
		C16,11.2,17.9,11.2,19.7,11.2z"/>
	<path class="st0" d="M19.7,21.1c-1.9,0-3.8,0-5.7,0c-0.2,0-0.3,0-0.5-0.1c-0.2-0.1-0.4-0.4-0.3-0.6c0.1-0.3,0.2-0.4,0.5-0.5
		c0.1,0,0.2,0,0.3,0c3.8,0,7.5,0,11.3,0c0.1,0,0.2,0,0.3,0c0.3,0,0.5,0.3,0.5,0.5c0,0.3-0.2,0.6-0.5,0.6c-0.1,0-0.2,0-0.3,0
		C23.5,21.1,21.6,21.1,19.7,21.1z"/>
	<path class="st0" d="M17,15.3c-1,0-2,0-2.9,0c-0.3,0-0.5-0.2-0.6-0.5c-0.1-0.3,0.1-0.5,0.3-0.6c0.1,0,0.2-0.1,0.3-0.1
		c1.9,0,3.9,0,5.8,0c0.4,0,0.7,0.2,0.7,0.6c0,0.4-0.2,0.6-0.7,0.6C18.9,15.3,18,15.3,17,15.3z"/>
	<path class="st0" d="M16.2,17c0.7,0,1.4,0,2.1,0c0.2,0,0.4,0.1,0.6,0.3c0.3,0.4,0.1,0.8-0.4,0.9c-0.2,0-0.5,0-0.7,0
		c-1.2,0-2.3,0-3.5,0c-0.1,0-0.2,0-0.2,0c-0.4,0-0.6-0.3-0.6-0.6c0-0.3,0.3-0.6,0.6-0.6C14.7,17,15.5,17,16.2,17
		C16.2,17,16.2,17,16.2,17z"/>
	<path class="st0" d="M7.6,28.3c0.3,0,0.6,0.2,0.6,0.6c0,0.3-0.3,0.6-0.6,0.6c-0.3,0-0.6-0.3-0.6-0.6C7,28.6,7.3,28.3,7.6,28.3z"/>
</g>
</svg>
