<?xml version="1.0" encoding="UTF-8"?>
<svg width="424px" height="162px" viewBox="0 0 424 162" version="1.1" xmlns="http://www.w3.org/2000/svg" xmlns:xlink="http://www.w3.org/1999/xlink">
    <!-- Generator: Sketch 54.1 (76490) - https://sketchapp.com -->
    <title>Artboard</title>
    <desc>Created with Sketch.</desc>
    <g id="Artboard" stroke="none" stroke-width="1" fill="none" fill-rule="evenodd">
        <g id="radio" transform="translate(0.000000, 18.000000)">
            <g id="Group" fill-rule="nonzero">
                <path d="M75.8421053,47.9142857 C75.8421053,32.1183673 62.9473684,19.4816327 47.4210526,19.4816327 C31.8947368,19.4816327 19,32.644898 19,47.9142857 C19,55.2857143 21.8947368,62.3938776 26.8947368,67.6591837 C28.4736842,69.7653061 31.6315789,70.0285714 33.4736842,68.1857143 C35.3157895,66.3428571 35.8421053,63.4469388 34,61.6040816 C34,61.3408163 33.7368421,61.3408163 33.4736842,61.077551 C26.1052632,53.7061224 26.3684211,41.5959184 34,34.2244898 C41.6315789,26.8530612 53.4736842,27.1163265 60.8421053,34.7510204 C67.9473684,42.122449 67.9473684,53.7061224 60.8421053,61.077551 C59,62.9204082 59,65.8163265 60.8421053,67.6591837 L60.8421053,67.6591837 C62.6842105,69.5020408 65.5789474,69.5020408 67.4210526,67.6591837 L67.4210526,67.6591837 C72.9473684,62.6571429 76.1052632,55.2857143 75.8421053,47.9142857 Z" id="Path" fill="#003168"></path>
                <path d="M47.6842105,0.526530612 C21.6315789,0.526530612 0.315789474,21.8510204 0.578947368,48.177551 C0.578947368,63.9734694 8.47368421,78.4530612 21.3684211,87.4040816 C23.4736842,88.9836735 26.3684211,88.1938776 27.9473684,86.0877551 C29.5263158,83.9816327 28.7368421,81.0857143 26.6315789,79.5061224 C9.26315789,67.922449 4.52631579,44.4918367 16.1052632,27.1163265 C27.6842105,9.74081633 51.1052632,5.00204082 68.4736842,16.5857143 C85.8421053,28.1693878 90.5789474,51.6 79,68.9755102 C76.1052632,73.1877551 72.6842105,76.6102041 68.4736842,79.5061224 C66.3684211,81.0857143 65.5789474,83.9816327 67.1578947,86.0877551 C68.7368421,88.1938776 71.6315789,88.9836735 73.7368421,87.4040816 C95.3157895,72.6612245 101.105263,43.4387755 86.6315789,21.5877551 C77.6842105,8.4244898 63.2105263,0.526530612 47.6842105,0.526530612 L47.6842105,0.526530612 Z" id="Path" fill="#003168"></path>
                <path d="M47.6842105,38.4367347 C42.4210526,38.4367347 38.2105263,42.9122449 38.2105263,47.9142857 C38.2105263,51.3367347 40.0526316,54.2326531 42.9473684,55.8122449 L42.9473684,90.3 C42.6842105,92.9326531 44.7894737,95.3020408 47.4210526,95.3020408 C50.0526316,95.3020408 52.4210526,93.4591837 52.4210526,90.8265306 C52.4210526,90.5632653 52.4210526,90.3 52.4210526,90.0367347 L52.4210526,56.3387755 C56.8947368,53.7061224 58.4736842,47.9142857 55.5789474,43.4387755 C54,40.5428571 50.8421053,38.4367347 47.6842105,38.4367347 Z" id="Path" fill="#003168"></path>
                <path d="M15.3157895,115.310204 C15.3157895,121.628571 12.4210526,125.577551 7.94736842,125.577551 C4.26315789,125.577551 1.89473684,123.734694 1.89473684,120.838776 C1.89473684,120.312245 1.89473684,119.785714 2.15789474,119.259184 L4.52631579,120.04898 C4.52631579,120.312245 4.26315789,120.57551 4.26315789,120.838776 C4.26315789,122.418367 5.57894737,123.471429 7.68421053,123.471429 C10.3157895,123.471429 11.8947368,120.57551 12.1578947,115.836735 C11.1052632,116.889796 9.78947368,117.153061 7.94736842,117.153061 C4,117.153061 1.63157895,114.783673 1.36842105,111.097959 C1.36842105,107.412245 4,105.042857 7.68421053,105.042857 C12.6842105,105.306122 15.0526316,108.728571 15.3157895,115.310204 Z M12.1578947,113.204082 C11.6315789,109.518367 10.3157895,107.412245 7.94736842,107.412245 C5.84210526,107.412245 4.26315789,108.991837 4.26315789,111.361224 C4.26315789,113.730612 5.57894737,115.310204 7.94736842,115.310204 C10.0526316,115.310204 11.3684211,114.520408 12.1578947,113.204082 Z" id="Shape" fill="#717171"></path>
                <g transform="translate(16.789474, 105.306122)" fill="#717171" id="Path">
                    <path d="M13.2631579,0 L13.2631579,1.84285714 C8.52631579,7.10816327 5.63157895,13.9530612 5.63157895,20.0081633 L3,20.0081633 C3,13.6897959 5.63157895,7.10816327 9.84210526,2.36938776 L0.368421053,2.36938776 L0.368421053,0 L13.2631579,0 Z"></path>
                    <path d="M16.1578947,18.4285714 C16.1578947,17.3755102 16.9473684,16.5857143 18,16.5857143 C19.0526316,16.5857143 19.8421053,17.3755102 19.8421053,18.4285714 C19.8421053,19.4816327 19.0526316,20.2714286 18,20.2714286 C16.9473684,20.2714286 16.1578947,19.744898 16.1578947,18.4285714 Z"></path>
                    <path d="M35.8947368,13.9530612 C35.8947368,17.9020408 33.2631579,20.2714286 29.3157895,20.2714286 C25.1052632,20.2714286 22.4736842,18.4285714 22.4736842,15.2693878 C22.4736842,14.7428571 22.4736842,14.2163265 22.7368421,13.6897959 L25.1052632,14.4795918 C25.1052632,14.7428571 25.1052632,15.0061224 25.1052632,15.2693878 C25.1052632,16.8489796 26.6842105,18.1653061 29.3157895,18.1653061 C31.6842105,18.1653061 33.2631579,16.5857143 33.2631579,14.2163265 C33.2631579,11.8469388 31.4210526,10.2673469 29.0526316,10.2673469 C27.7368421,10.2673469 26.1578947,10.7938776 25.3684211,11.3204082 L25.1052632,11.0571429 L23.7894737,9.74081633 L24.0526316,0 L35.1052632,0 L35.1052632,2.63265306 L26.4210526,2.63265306 L26.1578947,8.95102041 C26.9473684,8.6877551 28,8.4244898 28.7894737,8.4244898 C33.2631579,8.4244898 35.8947368,10.5306122 35.8947368,13.9530612 Z"></path>
                    <path d="M51.1578947,2.63265306 L51.1578947,8.95102041 L58,8.95102041 L58,11.3204082 L50.3684211,11.3204082 C50.1052632,11.3204082 49.8421053,11.3204082 49.8421053,11.3204082 C49.8421053,11.3204082 50.6315789,11.3204082 51.1578947,11.3204082 L51.1578947,20.0081633 L48.2631579,20.0081633 L48.2631579,0 L59.3157895,0 L59.3157895,2.36938776 L51.1578947,2.63265306 L51.1578947,2.63265306 Z"></path>
                    <path d="M82.2105263,20.2714286 L79.3157895,20.2714286 L79.3157895,4.73877551 L72.4736842,15.7959184 L65.6315789,5.00204082 L65.6315789,20.2714286 L63,20.2714286 L63,0.263265306 L65.6315789,0.263265306 L72.2105263,11.3204082 C72.2105263,11.5836735 71.1578947,12.6367347 71.6842105,12.6367347 L72.2105263,11.5836735 L79.0526316,0.263265306 L81.9473684,0.263265306 L82.2105263,20.2714286 L82.2105263,20.2714286 Z"></path>
                </g>
            </g>
            <g id="Group" transform="translate(128.000000, 20.000000)" fill="#003168">
                <g transform="translate(2.628319, 0.000000)" fill-rule="nonzero">
                    <path d="M1.83982301,17.375 C1.83982301,17.375 2.10265487,17.375 2.36548673,17.375 L9.19911504,17.375 L9.19911504,19.475 L2.62831858,19.475 L2.62831858,25.5125 L10.5132743,25.5125 L10.5132743,27.6125 L0.525663717,27.6125 L0.525663717,9.5 L10.5132743,9.5 L10.5132743,11.6 L2.62831858,11.6 L2.62831858,17.375 C2.36548673,17.375 1.83982301,17.375 1.83982301,17.375 Z" id="Path"></path>
                    <path d="M24.7061947,13.9625 C24.7061947,12.3875 23.1292035,11.3375 20.7637168,11.3375 C18.3982301,11.3375 17.0840708,12.3875 17.0840708,14.225 C17.0840708,18.6875 27.860177,17.1125 27.860177,23.15 C27.860177,26.0375 25.4946903,28.1375 21.5522124,28.1375 C19.1867257,28.1375 16.5584071,27.35 14.4557522,26.0375 L15.5070796,24.2 C16.8212389,25.5125 19.1867257,26.3 21.5522124,26.3 C23.6548673,26.3 25.2318584,24.9875 25.2318584,23.4125 C25.2318584,19.2125 14.7185841,21.05 14.7185841,14.4875 C14.7185841,11.6 17.0840708,9.5 21.0265487,9.5 C24.7061947,9.5 27.0716814,11.3375 27.0716814,14.225 C27.0716814,14.4875 27.0716814,15.0125 26.8088496,15.5375 L24.4433628,14.75 C24.4433628,14.4875 24.7061947,14.225 24.7061947,13.9625 Z" id="Path"></path>
                    <path d="M31.8026549,18.95 C31.8026549,13.175 35.219469,9.5 40.2132743,9.5 C44.1557522,9.5 46.7840708,11.6 46.7840708,14.75 C46.7840708,15.275 46.7840708,15.5375 46.5212389,16.0625 L44.1557522,15.5375 C44.1557522,15.275 44.1557522,15.0125 44.1557522,14.75 C44.1557522,12.65 42.5787611,11.6 40.2132743,11.6 C36.5336283,11.6 34.1681416,14.4875 34.1681416,18.95 C34.1681416,23.15 36.5336283,26.0375 40.2132743,26.0375 C42.0530973,26.0375 44.4185841,25.25 45.7327434,23.9375 L46.7840708,25.775 C44.9442478,27.0875 42.3159292,28.1375 40.2132743,28.1375 C35.219469,28.1375 31.8026549,24.4625 31.8026549,18.95 Z" id="Path"></path>
                    <path d="M64.6566372,20.7875 C64.6566372,25.5125 62.2911504,28.1375 58.0858407,28.1375 C53.880531,28.1375 51.2522124,25.5125 51.2522124,20.7875 L51.2522124,9.5 L53.6176991,9.5 L53.6176991,20.525 C53.6176991,23.9375 55.1946903,25.775 57.8230088,25.775 C60.4513274,25.775 62.0283186,23.675 62.0283186,20.525 L62.0283186,9.5 L64.3938053,9.5 L64.6566372,20.7875 L64.6566372,20.7875 Z" id="Path"></path>
                    <path d="M70.1761062,18.95 C70.1761062,13.175 73.5929204,9.5 78.5867257,9.5 C82.5292035,9.5 85.1575221,11.6 85.1575221,14.75 C85.1575221,15.275 85.1575221,15.5375 84.8946903,16.0625 L82.5292035,15.5375 C82.5292035,15.275 82.5292035,15.0125 82.5292035,14.75 C82.5292035,12.65 80.9522124,11.6 78.5867257,11.6 C74.9070796,11.6 72.5415929,14.4875 72.5415929,18.95 C72.5415929,23.15 74.9070796,26.0375 78.5867257,26.0375 C80.4265487,26.0375 82.7920354,25.25 84.1061947,23.9375 L85.1575221,25.775 C83.3176991,27.0875 80.6893805,28.1375 78.5867257,28.1375 C73.5929204,28.1375 70.1761062,24.4625 70.1761062,18.95 Z" id="Path"></path>
                    <path d="M103.030088,27.6125 L100.664602,27.6125 L100.664602,19.7375 L92.2539823,19.7375 L92.2539823,27.6125 L89.8884956,27.6125 L89.8884956,9.5 L92.2539823,9.5 L92.2539823,17.6375 L101.190265,17.6375 C101.453097,17.6375 101.715929,17.6375 101.715929,17.6375 C101.715929,17.375 100.927434,17.6375 100.664602,17.6375 L100.664602,9.7625 L103.030088,9.7625 L103.030088,27.6125 Z" id="Path"></path>
                    <path d="M112.229204,9.5 L116.697345,9.2375 L121.69115,27.6125 L119.062832,27.6125 L117.748673,22.625 L111.177876,22.625 L109.863717,27.6125 L107.49823,27.6125 L112.229204,9.5 Z M118.011504,20.525 C118.011504,20.2625 116.960177,20.525 116.960177,20.2625 L114.857522,11.8625 L114.069027,11.8625 L111.70354,20.525 C111.70354,20.525 118.011504,20.525 118.011504,20.525 Z" id="Shape"></path>
                    <path d="M139.038053,9.5 L143.506195,9.2375 L148.5,27.6125 L145.871681,27.6125 L144.557522,22.625 L137.986726,22.625 L136.672566,27.6125 L134.30708,27.6125 L139.038053,9.5 Z M144.820354,20.525 C144.820354,20.2625 143.769027,20.525 143.769027,20.2625 L141.666372,11.8625 L140.877876,11.8625 L138.512389,20.525 C138.512389,20.525 144.820354,20.525 144.820354,20.525 Z" id="Shape"></path>
                    <path d="M167.949558,18.6875 C167.949558,24.2 164.532743,28.1375 159.538938,28.1375 C154.282301,28.1375 150.865487,24.4625 151.128319,18.6875 C151.128319,13.175 154.545133,9.5 159.538938,9.5 C164.532743,9.5 167.949558,13.175 167.949558,18.6875 Z M165.321239,18.6875 C165.321239,14.225 162.955752,11.3375 159.276106,11.3375 C155.59646,11.3375 153.230973,14.225 153.230973,18.6875 C153.230973,23.15 155.59646,26.0375 159.276106,26.0375 C162.955752,26.0375 165.321239,23.15 165.321239,18.6875 Z M166.635398,32.8625 C164.532743,32.8625 162.955752,31.2875 160.590265,31.2875 C159.538938,31.2875 158.750442,31.55 157.961947,32.075 L157.436283,30.5 C158.487611,29.7125 159.80177,29.1875 160.853097,29.1875 C163.218584,29.1875 165.321239,30.7625 167.161062,30.7625 C168.475221,30.7625 169.263717,29.975 169.789381,28.6625 L171.366372,29.1875 C170.315044,31.8125 168.738053,32.8625 166.635398,32.8625 Z" id="Shape"></path>
                    <path d="M186.873451,20.7875 C186.873451,25.5125 184.507965,28.1375 180.302655,28.1375 C176.097345,28.1375 173.469027,25.5125 173.469027,20.7875 L173.469027,9.5 L175.834513,9.5 L175.834513,20.525 C175.834513,23.9375 177.411504,25.775 180.039823,25.775 C182.668142,25.775 184.245133,23.675 184.245133,20.525 L184.245133,9.5 L186.610619,9.5 L186.610619,20.7875 L186.873451,20.7875 Z" id="Path"></path>
                    <path d="M191.867257,5.3 L197.123894,0.8375 L198.700885,2.675 L193.181416,6.6125 L191.867257,5.3 Z M193.181416,27.6125 L193.181416,9.5 L195.546903,9.5 L195.546903,27.6125 L193.181416,27.6125 Z" id="Shape"></path>
                    <path d="M212.893805,9.7625 C214.470796,9.7625 215.522124,9.5 217.624779,9.5 C221.304425,9.5 223.669912,11.6 223.669912,14.75 C223.669912,16.85 222.618584,18.425 220.778761,19.2125 C221.567257,19.7375 222.09292,20.525 222.618584,21.8375 L223.669912,24.725 C223.932743,25.5125 224.195575,25.775 225.246903,25.775 L225.246903,27.6125 C223.144248,27.6125 222.09292,26.825 221.567257,24.9875 L220.515929,22.3625 C219.990265,20.7875 219.464602,20 218.150442,20 L215.259292,20 L215.259292,27.35 L212.893805,27.35 L212.893805,9.7625 Z M217.624779,18.1625 C219.990265,18.1625 221.304425,17.1125 221.304425,14.75 C221.304425,12.3875 220.253097,11.3375 217.624779,11.3375 C216.573451,11.3375 216.047788,11.6 215.259292,11.6 L215.259292,17.9 C214.99646,17.9 214.207965,17.9 214.207965,17.9 C214.207965,17.9 214.470796,17.9 214.733628,17.9 L217.624779,18.1625 L217.624779,18.1625 Z" id="Shape"></path>
                    <path d="M232.606195,9.5 L237.074336,9.2375 L242.068142,27.6125 L239.439823,27.6125 L238.125664,22.625 L231.554867,22.625 L230.240708,27.6125 L227.875221,27.6125 L232.606195,9.5 Z M238.388496,20.525 C238.388496,20.2625 237.337168,20.525 237.337168,20.2625 L235.234513,11.8625 L234.446018,11.8625 L232.080531,20.525 C232.080531,20.525 238.388496,20.525 238.388496,20.525 Z" id="Shape"></path>
                    <path d="M251.79292,9.5 C256.786726,9.5 259.940708,12.9125 259.940708,18.95 C259.940708,24.725 256.786726,28.4 251.79292,28.4 C249.427434,28.4 247.587611,27.875 246.010619,27.875 L246.010619,9.5 C247.587611,9.5 249.690265,9.5 251.79292,9.5 Z M247.587611,25.5125 C247.587611,25.5125 247.850442,25.5125 248.113274,25.775 C249.164602,26.0375 250.478761,26.0375 252.055752,26.0375 C255.472566,26.0375 257.838053,23.15 257.838053,18.6875 C257.838053,14.225 255.472566,11.3375 252.055752,11.3375 C251.004425,11.3375 249.690265,11.3375 248.638938,11.6 L248.638938,25.5125 C248.113274,25.5125 247.587611,25.5125 247.587611,25.5125 Z" id="Shape"></path>
                    <polygon id="Path" points="265.460177 27.6125 265.460177 9.5 267.825664 9.5 267.825664 27.6125"></polygon>
                    <path d="M273.345133,18.6875 C273.345133,13.175 276.761947,9.5 281.755752,9.5 C286.749558,9.5 290.166372,13.175 290.166372,18.6875 C290.166372,24.2 286.749558,28.1375 281.755752,28.1375 C276.761947,28.1375 273.345133,24.2 273.345133,18.6875 Z M287.800885,18.6875 C287.800885,14.225 285.435398,11.3375 281.755752,11.3375 C278.076106,11.3375 275.710619,14.225 275.710619,18.6875 C275.710619,23.15 278.076106,26.0375 281.755752,26.0375 C285.435398,26.0375 287.800885,23.15 287.800885,18.6875 Z" id="Shape"></path>
                </g>
                <g transform="translate(0.000000, 44.625000)">
                    <path d="M28.9115044,26.825 C28.9115044,33.3875 23.3920354,37.5875 14.9814159,37.5875 C10.7761062,37.5875 6.04513274,36.0125 1.57699115,32.8625 L3.1539823,26.825 C6.04513274,29.1875 10.5132743,30.7625 14.4557522,30.7625 C18.3982301,30.7625 20.7637168,29.45 20.7637168,27.0875 C20.7637168,20.7875 0.788495575,24.4625 0.788495575,10.55 C0.788495575,4.25 6.04513274,0.05 13.9300885,0.05 C22.0778761,0.05 27.5973451,3.9875 27.5973451,10.025 C27.5973451,10.55 27.5973451,11.6 27.3345133,12.125 L19.4495575,11.075 C19.7123894,10.8125 19.7123894,10.2875 19.7123894,10.025 C19.7123894,7.925 17.6097345,6.6125 14.1929204,6.6125 C11.0389381,6.6125 8.93628319,8.1875 8.93628319,10.2875 C8.93628319,16.85 28.9115044,13.9625 28.9115044,26.825 Z" id="Path" fill-rule="nonzero"></path>
                    <path d="M31.2769912,31.8125 C31.2769912,27.6125 36.0079646,24.9875 42.8415929,24.9875 L44.9442478,24.9875 L44.9442478,22.3625 C44.9442478,20.525 43.8929204,19.475 42.3159292,19.475 C40.7389381,19.475 39.6876106,20.2625 39.6876106,21.3125 C39.6876106,21.575 39.6876106,22.1 39.9504425,22.3625 L32.5911504,23.675 C32.0654867,23.15 31.8026549,22.1 31.8026549,20.7875 C31.8026549,16.5875 36.0079646,13.9625 42.3159292,13.9625 C49.1495575,13.9625 52.5663717,17.1125 52.5663717,22.3625 L52.5663717,36.8 L44.6814159,36.8 L44.6814159,35.75 C44.6814159,34.175 47.0469027,31.025 46.5212389,31.025 C45.9955752,31.025 44.4185841,37.325 38.1106195,37.325 C34.1681416,37.5875 31.2769912,35.225 31.2769912,31.8125 Z M44.9442478,28.1375 C41.5274336,28.1375 39.1619469,29.1875 39.1619469,30.7625 C39.1619469,31.55 39.9504425,32.3375 40.7389381,32.3375 C42.8415929,32.075 44.4185841,30.5 44.9442478,28.1375 Z" id="Shape" fill-rule="nonzero"></path>
                    <path d="M80.1637168,21.8375 L80.1637168,36.8 L72.2787611,36.8 L72.2787611,22.8875 C72.2787611,21.05 71.2274336,19.7375 69.6504425,19.7375 C68.0734513,19.7375 66.2336283,21.05 65.1823009,22.8875 L65.1823009,36.8 L57.2973451,36.8 L57.2973451,14.4875 L65.1823009,14.4875 L65.1823009,15.5375 C65.1823009,17.1125 62.8168142,20.2625 63.3424779,20.2625 C63.8681416,20.2625 65.4451327,13.9625 71.7530973,13.9625 C77.0097345,13.9625 80.1637168,16.85 80.1637168,21.8375 Z" id="Path" fill-rule="nonzero"></path>
                    <path d="M97.7734513,19.2125 C97.7734513,7.925 104.344248,0.575 114.59469,0.575 C122.742478,0.575 128.524779,4.5125 128.524779,10.2875 C128.524779,11.3375 128.261947,12.65 127.473451,13.7 L120.376991,12.125 C120.376991,11.8625 120.639823,11.3375 120.639823,11.075 C120.639823,8.975 118.537168,7.1375 114.857522,7.1375 C109.600885,7.1375 105.921239,11.8625 105.921239,19.2125 C105.921239,26.3 109.600885,31.2875 115.120354,31.2875 C118.537168,31.2875 122.479646,29.7125 125.107965,27.35 L128.787611,32.075 C125.370796,35.4875 119.851327,37.85 114.857522,37.85 C104.344248,37.85 97.7734513,30.2375 97.7734513,19.2125 Z" id="Path" fill-rule="nonzero"></path>
                    <path d="M131.415929,14.4875 L139.300885,14.4875 L139.300885,15.5375 C139.300885,17.1125 136.935398,20.2625 137.461062,20.2625 C137.986726,20.2625 139.300885,13.9625 147.185841,13.9625 L147.185841,20.525 C143.769027,20.525 140.615044,21.8375 139.300885,23.675 L139.300885,37.0625 L131.415929,37.0625 L131.415929,14.4875 Z" id="Path" fill-rule="nonzero"></path>
                    <path d="M149.551327,5.3 C149.551327,2.675 151.653982,0.575 154.282301,0.575 C156.910619,0.575 159.013274,2.675 159.013274,5.3 C159.013274,7.925 156.910619,10.025 154.282301,10.025 C151.653982,10.025 149.551327,8.1875 149.551327,5.3 Z M150.339823,14.4875 L158.224779,14.4875 L158.224779,36.8 L150.339823,36.8 L150.339823,14.4875 Z" id="Shape" fill-rule="nonzero"></path>
                    <path d="M182.668142,30.7625 C182.668142,34.9625 178.462832,37.5875 172.154867,37.5875 C168.475221,37.5875 164.269912,36.275 161.641593,34.4375 L163.744248,29.975 C165.846903,31.2875 169.526549,32.3375 172.417699,32.3375 C173.731858,32.3375 174.783186,31.8125 174.783186,31.025 C174.783186,27.875 161.641593,28.925 161.641593,21.575 C161.641593,17.1125 165.846903,13.9625 171.892035,13.9625 C177.937168,13.9625 182.142478,16.325 182.142478,19.7375 C182.142478,20.7875 181.616814,22.1 181.09115,22.8875 L173.99469,21.575 C173.99469,21.3125 174.257522,21.05 174.257522,20.7875 C174.257522,20 173.206195,19.475 171.892035,19.475 C170.315044,19.475 169.526549,20.2625 169.526549,21.3125 C169.526549,24.9875 182.668142,23.4125 182.668142,30.7625 Z" id="Path" fill-rule="nonzero"></path>
                    <path d="M188.187611,30.5 L188.187611,20.2625 L184.507965,20.2625 L184.507965,14.4875 L188.187611,14.4875 L188.187611,7.6625 L196.072566,7.6625 L196.072566,14.4875 L203.431858,14.4875 L203.431858,20.2625 L193.70708,20.2625 C192.918584,20.2625 192.918584,20.2625 192.918584,20.525 C192.918584,20.525 196.072566,20.525 196.072566,20.7875 L196.072566,29.45 C196.072566,31.025 196.861062,31.8125 197.912389,31.8125 C199.226549,31.8125 200.540708,31.025 201.592035,29.975 L204.220354,34.4375 C202.117699,36.275 198.963717,37.325 196.59823,37.325 C191.604425,37.5875 188.187611,34.7 188.187611,30.5 Z" id="Path" fill-rule="nonzero"></path>
                    <path d="M231.029204,25.775 C231.029204,32.8625 226.035398,37.5875 218.676106,37.5875 C211.053982,37.5875 206.323009,32.8625 206.323009,25.775 C206.323009,18.6875 211.053982,13.9625 218.676106,13.9625 C226.035398,13.9625 231.029204,18.6875 231.029204,25.775 Z M223.144248,25.775 C223.144248,22.1 221.304425,19.7375 218.676106,19.7375 C216.047788,19.7375 214.207965,22.1 214.207965,25.775 C214.207965,29.45 216.047788,31.8125 218.676106,31.8125 C221.304425,31.8125 223.144248,29.45 223.144248,25.775 Z" id="Shape" fill-rule="nonzero"></path>
                    <rect id="Rectangle" transform="translate(219.500000, 7.500000) rotate(-50.000000) translate(-219.500000, -7.500000) " x="215" y="5" width="9" height="5" rx="2.5"></rect>
                    <path d="M242.330973,34.9625 L242.330973,36.8 L234.446018,36.8 L234.446018,1.3625 L242.330973,1.3625 L242.330973,15.8 C242.330973,17.1125 239.965487,20.525 240.49115,20.525 C241.016814,20.525 242.593805,14.225 248.90177,14.225 C255.209735,14.225 259.152212,18.6875 259.152212,26.0375 C259.152212,33.125 254.946903,37.85 248.376106,37.85 C246.010619,37.5875 243.907965,36.5375 242.330973,34.9625 Z M251.267257,25.775 C251.267257,22.1 249.690265,19.7375 247.061947,19.7375 C245.222124,19.7375 243.382301,21.05 242.330973,22.8875 L242.330973,29.7125 C243.382301,31.025 244.959292,31.8125 247.061947,31.8125 C249.427434,31.8125 251.267257,29.45 251.267257,25.775 Z" id="Shape" fill-rule="nonzero"></path>
                    <path d="M261.517699,31.8125 C261.517699,27.6125 266.248673,24.9875 273.082301,24.9875 L275.184956,24.9875 L275.184956,22.3625 C275.184956,20.525 274.133628,19.475 272.556637,19.475 C270.979646,19.475 269.928319,20.2625 269.928319,21.3125 C269.928319,21.575 269.928319,22.1 270.19115,22.3625 L262.831858,23.675 C262.306195,23.15 262.043363,22.1 262.043363,20.7875 C262.043363,16.5875 266.248673,13.9625 272.556637,13.9625 C279.390265,13.9625 282.80708,17.1125 282.80708,22.3625 L282.80708,36.8 L274.922124,36.8 L274.922124,35.75 C274.922124,34.175 277.287611,31.025 276.761947,31.025 C276.236283,31.025 274.659292,37.325 268.351327,37.325 C264.40885,37.5875 261.517699,35.225 261.517699,31.8125 Z M275.447788,28.1375 C272.030973,28.1375 269.665487,29.1875 269.665487,30.7625 C269.665487,31.55 270.453982,32.3375 271.242478,32.3375 C273.082301,32.075 274.922124,30.5 275.447788,28.1375 Z" id="Shape" fill-rule="nonzero"></path>
                    <polygon id="Path" fill-rule="nonzero" points="287.538053 1.3625 295.423009 1.3625 295.423009 36.8 287.538053 36.8"></polygon>
                </g>
            </g>
        </g>
    </g>
</svg>