<?xml version="1.0" encoding="utf-8"?>
<!-- Generator: Adobe Illustrator 27.0.0, SVG Export Plug-In . SVG Version: 6.00 Build 0)  -->
<svg version="1.1" id="Capa_1" xmlns="http://www.w3.org/2000/svg" xmlns:xlink="http://www.w3.org/1999/xlink" x="0px" y="0px"
	 viewBox="0 0 424 162" style="enable-background:new 0 0 424 162;" xml:space="preserve">
<style type="text/css">
	.st0{fill:#FFFFFF;}
	.st1{fill-rule:evenodd;clip-rule:evenodd;fill:#FFFFFF;}
</style>
<g id="Artboard">
	<g id="radio" transform="translate(0.000000, 18.000000)">
		<g id="Group">
			<path id="Path" class="st0" d="M75.8,47.9c0-15.8-12.9-28.4-28.4-28.4S19,32.6,19,47.9c0,7.4,2.9,14.5,7.9,19.7
				c1.6,2.1,4.7,2.4,6.6,0.5c1.8-1.8,2.4-4.7,0.5-6.6c0-0.3-0.3-0.3-0.5-0.5c-7.4-7.4-7.1-19.5,0.5-26.9s19.5-7.1,26.8,0.5
				c7.1,7.4,7.1,19,0,26.3c-1.8,1.8-1.8,4.7,0,6.6l0,0c1.8,1.8,4.7,1.8,6.6,0l0,0C72.9,62.7,76.1,55.3,75.8,47.9z"/>
			<path id="Path_00000124863736375647475950000005824322705713596580_" class="st0" d="M47.7,0.5C21.6,0.5,0.3,21.9,0.6,48.2
				c0,15.8,7.9,30.3,20.8,39.2c2.1,1.6,5,0.8,6.6-1.3c1.6-2.1,0.8-5-1.3-6.6C9.3,67.9,4.5,44.5,16.1,27.1S51.1,5,68.5,16.6
				S90.6,51.6,79,69c-2.9,4.2-6.3,7.6-10.5,10.5c-2.1,1.6-2.9,4.5-1.3,6.6c1.6,2.1,4.5,2.9,6.6,1.3c21.6-14.7,27.4-44,12.9-65.8
				C77.7,8.4,63.2,0.5,47.7,0.5L47.7,0.5z"/>
			<path id="Path_00000159464879258278954730000000838862567921528997_" class="st0" d="M47.7,38.4c-5.3,0-9.5,4.5-9.5,9.5
				c0,3.4,1.8,6.3,4.7,7.9v34.5c-0.3,2.6,1.8,5,4.5,5c2.6,0,5-1.8,5-4.5c0-0.3,0-0.5,0-0.8V56.3c4.5-2.6,6.1-8.4,3.2-12.9
				C54,40.5,50.8,38.4,47.7,38.4z"/>
			<path id="Shape" class="st0" d="M15.3,115.3c0,6.3-2.9,10.3-7.4,10.3c-3.7,0-6.1-1.8-6.1-4.7c0-0.5,0-1.1,0.3-1.6l2.4,0.8
				c0,0.3-0.3,0.5-0.3,0.8c0,1.6,1.3,2.6,3.4,2.6c2.6,0,4.2-2.9,4.5-7.6c-1.1,1.1-2.4,1.3-4.2,1.3c-3.9,0-6.3-2.4-6.6-6.1
				c0-3.7,2.6-6.1,6.3-6.1C12.7,105.3,15.1,108.7,15.3,115.3z M12.2,113.2c-0.5-3.7-1.8-5.8-4.2-5.8c-2.1,0-3.7,1.6-3.7,3.9
				c0,2.4,1.3,3.9,3.7,3.9C10.1,115.3,11.4,114.5,12.2,113.2z"/>
			<g id="Path_00000093152186077460201990000006597274829072239796_" transform="translate(16.789474, 105.306122)">
				<path class="st0" d="M13.3,0v1.8C8.5,7.1,5.6,14,5.6,20H3C3,13.7,5.6,7.1,9.8,2.4H0.4V0H13.3z"/>
				<path class="st0" d="M16.2,18.4c0-1.1,0.8-1.8,1.8-1.8s1.8,0.8,1.8,1.8c0,1.1-0.8,1.8-1.8,1.8S16.2,19.7,16.2,18.4z"/>
				<path class="st0" d="M35.9,14c0,3.9-2.6,6.3-6.6,6.3c-4.2,0-6.8-1.8-6.8-5c0-0.5,0-1.1,0.3-1.6l2.4,0.8c0,0.3,0,0.5,0,0.8
					c0,1.6,1.6,2.9,4.2,2.9c2.4,0,3.9-1.6,3.9-3.9s-1.8-3.9-4.2-3.9c-1.3,0-2.9,0.5-3.7,1.1l-0.3-0.3l-1.3-1.3L24.1,0h11.1v2.6h-8.7
					L26.2,9c0.8-0.3,1.8-0.5,2.6-0.5C33.3,8.4,35.9,10.5,35.9,14z"/>
				<path class="st0" d="M51.2,2.6V9H58v2.4h-7.6c-0.3,0-0.5,0-0.5,0s0.8,0,1.3,0V20h-2.9V0h11.1v2.4L51.2,2.6L51.2,2.6z"/>
				<path class="st0" d="M82.2,20.3h-2.9V4.7l-6.8,11.1L65.6,5v15.3H63v-20h2.6l6.6,11.1c0,0.3-1.1,1.3-0.5,1.3l0.5-1.1l6.8-11.3
					h2.9L82.2,20.3L82.2,20.3z"/>
			</g>
		</g>
		<g id="Group_00000076597909558710562090000008385767929301519533_" transform="translate(128.000000, 20.000000)">
			<g transform="translate(2.628319, 0.000000)">
				<path id="Path_00000149372440492861662220000009776434478738536884_" class="st0" d="M1.8,17.4c0,0,0.3,0,0.5,0h6.8v2.1H2.6v6
					h7.9v2.1h-10V9.5h10v2.1H2.6v5.8C2.4,17.4,1.8,17.4,1.8,17.4z"/>
				<path id="Path_00000003092758920396864160000009980288952792220055_" class="st0" d="M24.7,14c0-1.6-1.6-2.6-3.9-2.6
					s-3.7,1.1-3.7,2.9c0,4.5,10.8,2.9,10.8,8.9c0,2.9-2.4,5-6.3,5c-2.4,0-5-0.8-7.1-2.1l1.1-1.8c1.3,1.3,3.7,2.1,6,2.1
					c2.1,0,3.7-1.3,3.7-2.9c0-4.2-10.5-2.4-10.5-8.9c0-2.9,2.4-5,6.3-5c3.7,0,6,1.8,6,4.7c0,0.3,0,0.8-0.3,1.3l-2.4-0.8
					C24.4,14.5,24.7,14.2,24.7,14z"/>
				<path id="Path_00000003090032319086173530000014273052177583498893_" class="st0" d="M31.8,18.9c0-5.8,3.4-9.4,8.4-9.4
					c3.9,0,6.6,2.1,6.6,5.2c0,0.5,0,0.8-0.3,1.3l-2.4-0.5c0-0.3,0-0.5,0-0.8c0-2.1-1.6-3.1-3.9-3.1c-3.7,0-6,2.9-6,7.3
					c0,4.2,2.4,7.1,6,7.1c1.8,0,4.2-0.8,5.5-2.1l1.1,1.8c-1.8,1.3-4.5,2.4-6.6,2.4C35.2,28.1,31.8,24.5,31.8,18.9z"/>
				<path id="Path_00000031914399323395536860000001697615498411483014_" class="st0" d="M64.7,20.8c0,4.7-2.4,7.4-6.6,7.4
					s-6.8-2.6-6.8-7.4V9.5h2.4v11c0,3.4,1.6,5.2,4.2,5.2s4.2-2.1,4.2-5.2v-11h2.4L64.7,20.8L64.7,20.8z"/>
				<path id="Path_00000063620742725649978680000009162940052361601470_" class="st0" d="M70.2,18.9c0-5.8,3.4-9.4,8.4-9.4
					c3.9,0,6.6,2.1,6.6,5.2c0,0.5,0,0.8-0.3,1.3l-2.4-0.5c0-0.3,0-0.5,0-0.8c0-2.1-1.6-3.1-3.9-3.1c-3.7,0-6,2.9-6,7.3
					c0,4.2,2.4,7.1,6,7.1c1.8,0,4.2-0.8,5.5-2.1l1.1,1.8c-1.8,1.3-4.5,2.4-6.6,2.4C73.6,28.1,70.2,24.5,70.2,18.9z"/>
				<path id="Path_00000138539676794609890570000007693905580420034746_" class="st0" d="M103,27.6h-2.4v-7.9h-8.4v7.9h-2.4V9.5h2.4
					v8.1h8.9c0.3,0,0.5,0,0.5,0c0-0.3-0.8,0-1.1,0V9.8h2.4V27.6z"/>
				<path id="Shape_00000134234447037444880540000007127120951649305275_" class="st0" d="M112.2,9.5l4.5-0.3l5,18.4h-2.6l-1.3-5
					h-6.6l-1.3,5h-2.4L112.2,9.5z M118,20.5c0-0.3-1.1,0-1.1-0.3l-2.1-8.4h-0.8l-2.4,8.7H118z"/>
				<path id="Shape_00000008828322270539175630000005488554525820003246_" class="st0" d="M139,9.5l4.5-0.3l5,18.4h-2.6l-1.3-5H138
					l-1.3,5h-2.4L139,9.5z M144.8,20.5c0-0.3-1.1,0-1.1-0.3l-2.1-8.4h-0.8l-2.4,8.7H144.8z"/>
				<path id="Shape_00000118392586529252701400000004355505025150305179_" class="st0" d="M167.9,18.7c0,5.5-3.4,9.5-8.4,9.5
					c-5.3,0-8.7-3.7-8.4-9.5c0-5.5,3.4-9.2,8.4-9.2S167.9,13.2,167.9,18.7z M165.3,18.7c0-4.5-2.4-7.3-6-7.3s-6,2.9-6,7.3
					s2.4,7.4,6,7.4S165.3,23.1,165.3,18.7z M166.6,32.9c-2.1,0-3.7-1.6-6-1.6c-1.1,0-1.8,0.3-2.6,0.8l-0.5-1.6
					c1.1-0.8,2.4-1.3,3.4-1.3c2.4,0,4.5,1.6,6.3,1.6c1.3,0,2.1-0.8,2.6-2.1l1.6,0.5C170.3,31.8,168.7,32.9,166.6,32.9z"/>
				<path id="Path_00000161618662064951986010000012163654089736627885_" class="st0" d="M186.9,20.8c0,4.7-2.4,7.4-6.6,7.4
					s-6.8-2.6-6.8-7.4V9.5h2.4v11c0,3.4,1.6,5.2,4.2,5.2c2.6,0,4.2-2.1,4.2-5.2v-11h2.4v11.3H186.9z"/>
				<path id="Shape_00000112607722066046095130000012867853609940884402_" class="st0" d="M191.9,5.3l5.3-4.5l1.6,1.8l-5.5,3.9
					L191.9,5.3z M193.2,27.6V9.5h2.4v18.1H193.2z"/>
				<path id="Shape_00000180341539898516485980000017978252340042816161_" class="st0" d="M212.9,9.8c1.6,0,2.6-0.3,4.7-0.3
					c3.7,0,6,2.1,6,5.2c0,2.1-1.1,3.7-2.9,4.5c0.8,0.5,1.3,1.3,1.8,2.6l1.1,2.9c0.3,0.8,0.5,1,1.6,1v1.8c-2.1,0-3.2-0.8-3.7-2.6
					l-1.1-2.6c-0.5-1.6-1.1-2.4-2.4-2.4h-2.9v7.4h-2.4V9.8z M217.6,18.2c2.4,0,3.7-1.1,3.7-3.4s-1.1-3.4-3.7-3.4
					c-1.1,0-1.6,0.3-2.4,0.3v6.3c-0.3,0-1.1,0-1.1,0s0.3,0,0.5,0L217.6,18.2L217.6,18.2z"/>
				<path id="Shape_00000072271608780595537990000004607443741413290378_" class="st0" d="M232.6,9.5l4.5-0.3l5,18.4h-2.6l-1.3-5
					h-6.6l-1.3,5h-2.4L232.6,9.5z M238.4,20.5c0-0.3-1.1,0-1.1-0.3l-2.1-8.4h-0.8l-2.4,8.7H238.4z"/>
				<path id="Shape_00000067235372753038413990000015706826474016331405_" class="st0" d="M251.8,9.5c5,0,8.1,3.4,8.1,9.4
					c0,5.8-3.2,9.4-8.1,9.4c-2.4,0-4.2-0.5-5.8-0.5V9.5C247.6,9.5,249.7,9.5,251.8,9.5z M247.6,25.5c0,0,0.3,0,0.5,0.3
					c1.1,0.3,2.4,0.3,3.9,0.3c3.4,0,5.8-2.9,5.8-7.4s-2.4-7.3-5.8-7.3c-1.1,0-2.4,0-3.4,0.3v13.9C248.1,25.5,247.6,25.5,247.6,25.5z
					"/>
				<polygon id="Path_00000034778724004610725770000015294149757601189258_" class="st0" points="265.5,27.6 265.5,9.5 267.8,9.5 
					267.8,27.6 				"/>
				<path id="Shape_00000042010903898187685100000010225208225570960302_" class="st0" d="M273.3,18.7c0-5.5,3.4-9.2,8.4-9.2
					c5,0,8.4,3.7,8.4,9.2s-3.4,9.5-8.4,9.5C276.8,28.1,273.3,24.2,273.3,18.7z M287.8,18.7c0-4.5-2.4-7.3-6-7.3c-3.7,0-6,2.9-6,7.3
					s2.4,7.4,6,7.4C285.4,26,287.8,23.1,287.8,18.7z"/>
			</g>
			<g transform="translate(0.000000, 44.625000)">
				<path id="Path_00000105387095700731874640000003808387022840769420_" class="st0" d="M28.9,26.8c0,6.6-5.5,10.8-13.9,10.8
					c-4.2,0-8.9-1.6-13.4-4.7l1.6-6c2.9,2.4,7.4,3.9,11.3,3.9s6.3-1.3,6.3-3.7c0-6.3-20-2.6-20-16.5C0.8,4.2,6,0,13.9,0
					C22.1,0,27.6,4,27.6,10c0,0.5,0,1.6-0.3,2.1l-7.9-1.1c0.3-0.3,0.3-0.8,0.3-1.1c0-2.1-2.1-3.4-5.5-3.4c-3.2,0-5.3,1.6-5.3,3.7
					C8.9,16.8,28.9,14,28.9,26.8z"/>
				<path id="Shape_00000099661852289717214900000013974848533159932346_" class="st0" d="M31.3,31.8c0-4.2,4.7-6.8,11.6-6.8h2.1
					v-2.6c0-1.8-1.1-2.9-2.6-2.9s-2.6,0.8-2.6,1.8c0,0.3,0,0.8,0.3,1l-7.4,1.3c-0.5-0.5-0.8-1.6-0.8-2.9c0-4.2,4.2-6.8,10.5-6.8
					c6.8,0,10.3,3.1,10.3,8.4v14.4h-7.9v-1c0-1.6,2.4-4.7,1.8-4.7c-0.5,0-2.1,6.3-8.4,6.3C34.2,37.6,31.3,35.2,31.3,31.8z
					 M44.9,28.1c-3.4,0-5.8,1-5.8,2.6c0,0.8,0.8,1.6,1.6,1.6C42.8,32.1,44.4,30.5,44.9,28.1z"/>
				<path id="Path_00000011753969864011229430000016381861192039957670_" class="st0" d="M80.2,21.8v15h-7.9V22.9
					c0-1.8-1.1-3.2-2.6-3.2c-1.6,0-3.4,1.3-4.5,3.2v13.9h-7.9V14.5h7.9v1.1c0,1.6-2.4,4.7-1.8,4.7c0.5,0,2.1-6.3,8.4-6.3
					C77,14,80.2,16.8,80.2,21.8z"/>
				<path id="Path_00000007411807179989286790000002092169214247655341_" class="st0" d="M97.8,19.2c0-11.3,6.6-18.6,16.8-18.6
					c8.1,0,13.9,3.9,13.9,9.7c0,1-0.3,2.4-1.1,3.4l-7.1-1.6c0-0.3,0.3-0.8,0.3-1.1c0-2.1-2.1-3.9-5.8-3.9c-5.3,0-8.9,4.7-8.9,12.1
					c0,7.1,3.7,12.1,9.2,12.1c3.4,0,7.4-1.6,10-3.9l3.7,4.7c-3.4,3.4-8.9,5.8-13.9,5.8C104.3,37.8,97.8,30.2,97.8,19.2z"/>
				<path id="Path_00000118371207449013569960000005360694530704671884_" class="st0" d="M131.4,14.5h7.9v1.1c0,1.6-2.4,4.7-1.8,4.7
					s1.8-6.3,9.7-6.3v6.6c-3.4,0-6.6,1.3-7.9,3.1v13.4h-7.9V14.5z"/>
				<path id="Shape_00000166646055718195809880000001507295161360982974_" class="st0" d="M149.6,5.3c0-2.6,2.1-4.7,4.7-4.7
					c2.6,0,4.7,2.1,4.7,4.7s-2.1,4.7-4.7,4.7C151.7,10,149.6,8.2,149.6,5.3z M150.3,14.5h7.9v22.3h-7.9V14.5z"/>
				<path id="Path_00000080182795921585264450000008520757256175543459_" class="st0" d="M182.7,30.8c0,4.2-4.2,6.8-10.5,6.8
					c-3.7,0-7.9-1.3-10.5-3.2l2.1-4.5c2.1,1.3,5.8,2.4,8.7,2.4c1.3,0,2.4-0.5,2.4-1.3c0-3.1-13.1-2.1-13.1-9.4
					c0-4.5,4.2-7.6,10.3-7.6c6,0,10.3,2.4,10.3,5.8c0,1.1-0.5,2.4-1.1,3.2l-7.1-1.3c0-0.3,0.3-0.5,0.3-0.8c0-0.8-1.1-1.3-2.4-1.3
					c-1.6,0-2.4,0.8-2.4,1.8C169.5,25,182.7,23.4,182.7,30.8z"/>
				<path id="Path_00000103947083937751130740000001158896771217459901_" class="st0" d="M188.2,30.5V20.3h-3.7v-5.8h3.7V7.7h7.9
					v6.8h7.4v5.8h-9.7c-0.8,0-0.8,0-0.8,0.3c0,0,3.2,0,3.2,0.3v8.7c0,1.6,0.8,2.4,1.8,2.4c1.3,0,2.6-0.8,3.7-1.8l2.6,4.5
					c-2.1,1.8-5.3,2.9-7.6,2.9C191.6,37.6,188.2,34.7,188.2,30.5z"/>
				<path id="Shape_00000169535181673975447700000011273101161183254965_" class="st0" d="M231,25.8c0,7.1-5,11.8-12.4,11.8
					c-7.6,0-12.4-4.7-12.4-11.8S211.1,14,218.7,14C226,14,231,18.7,231,25.8z M223.1,25.8c0-3.7-1.8-6-4.5-6c-2.6,0-4.5,2.4-4.5,6
					s1.8,6,4.5,6C221.3,31.8,223.1,29.4,223.1,25.8z"/>
				<path id="Rectangle" class="st1" d="M216.3,7.4l2.6-3.1c0.9-1.1,2.5-1.2,3.5-0.3l0,0c1.1,0.9,1.2,2.5,0.3,3.5l-2.6,3.1
					c-0.9,1.1-2.5,1.2-3.5,0.3l0,0C215.5,10.1,215.4,8.5,216.3,7.4z"/>
				<path id="Shape_00000086652543482058297970000005341441972637788049_" class="st0" d="M242.3,35v1.8h-7.9V1.4h7.9v14.4
					c0,1.3-2.4,4.7-1.8,4.7s2.1-6.3,8.4-6.3c6.3,0,10.3,4.5,10.3,11.8c0,7.1-4.2,11.8-10.8,11.8C246,37.6,243.9,36.5,242.3,35z
					 M251.3,25.8c0-3.7-1.6-6-4.2-6c-1.8,0-3.7,1.3-4.7,3.2v6.8c1.1,1.3,2.6,2.1,4.7,2.1C249.4,31.8,251.3,29.4,251.3,25.8z"/>
				<path id="Shape_00000130624669476354463780000002799867702068989351_" class="st0" d="M261.5,31.8c0-4.2,4.7-6.8,11.6-6.8h2.1
					v-2.6c0-1.8-1.1-2.9-2.6-2.9s-2.6,0.8-2.6,1.8c0,0.3,0,0.8,0.3,1l-7.4,1.3c-0.5-0.5-0.8-1.6-0.8-2.9c0-4.2,4.2-6.8,10.5-6.8
					c6.8,0,10.3,3.1,10.3,8.4v14.4h-7.9v-1c0-1.6,2.4-4.7,1.8-4.7c-0.5,0-2.1,6.3-8.4,6.3C264.4,37.6,261.5,35.2,261.5,31.8z
					 M275.4,28.1c-3.4,0-5.8,1-5.8,2.6c0,0.8,0.8,1.6,1.6,1.6C273.1,32.1,274.9,30.5,275.4,28.1z"/>
				<polygon id="Path_00000132048717663266937400000000595833550840731293_" class="st0" points="287.5,1.4 295.4,1.4 295.4,36.8 
					287.5,36.8 				"/>
			</g>
		</g>
	</g>
</g>
</svg>
