<?xml version="1.0" encoding="utf-8"?>
<!-- Generator: Adobe Illustrator 23.0.2, SVG Export Plug-In . SVG Version: 6.00 Build 0)  -->
<svg version="1.1" id="Capa_1" xmlns="http://www.w3.org/2000/svg" xmlns:xlink="http://www.w3.org/1999/xlink" x="0px" y="0px"
	 viewBox="0 0 220 60" style="enable-background:new 0 0 220 60;" xml:space="preserve">
<style type="text/css">
	.st0{fill:#4C85C6;}
	.st1{fill:#FFFFFF;}
</style>
<g>
	<title>icono-1</title>
	<g>
		<g>
			<path class="st0" d="M190.4,20.9c0.3-0.1,0.6,0.1,0.7,0.4c0.1,0.3-0.1,0.6-0.4,0.7l-16.3,5.3c-0.3,0.1-0.5,0-0.7-0.3l-8.5-15.1
				c-0.2-0.3-0.1-0.6,0.2-0.8s0.6-0.1,0.8,0.2l8.2,14.7L190.4,20.9z"/>
			<path class="st0" d="M158.9,29.5l0.4-1.1c-0.1,0-0.2,0-0.2,0h0.1c0.2,0,0.4-0.1,0.7-0.2c0.6-0.2,1.4-0.6,2.6-1
				c2.2-0.9,5.6-2.4,9.9-4.3l0.5,1c-4.4,1.9-7.7,3.4-9.9,4.3C160.1,29.3,159.2,29.6,158.9,29.5z"/>
			<path class="st0" d="M184.1,38.1c0,0-0.1-0.1-0.2-0.1l-0.2,0.5l-0.5,0.2l-6-12.6c-0.3-0.7,0.7-1.2,1-0.5c1.6,3.4,2.6,5.6,4.4,9.4
				c0.6,1.4,0.9,1.9,1.1,2.4C183.8,37.7,183.9,37.9,184.1,38.1C184.1,38,184.1,38,184.1,38.1L184.1,38.1z M183.5,39
				c-0.4-0.1-0.2,0.1-1.9-3.5c-1.7-3.8-2.8-6-4.4-9.4l1-0.5l6,12.6C184.5,38.7,184,39.2,183.5,39z"/>
			<path class="st0" d="M152.3,16.5c-0.4-0.2-0.7-0.5-0.5-0.8c0.1-0.3,0.5-0.4,1-0.2l7.4,2.9c0.4,0.2,0.7,0.5,0.5,0.8
				c-0.1,0.3-0.5,0.4-1,0.2L152.3,16.5z"/>
			<path class="st0" d="M154.2,20.3c-0.4-0.2-0.7-0.5-0.5-0.8c0.1-0.3,0.5-0.4,1-0.2l4.6,1.8c0.4,0.2,0.7,0.5,0.5,0.8
				c-0.1,0.3-0.5,0.4-1,0.2L154.2,20.3z"/>
			<path class="st0" d="M156.2,15c-0.4-0.2-0.7-0.5-0.5-0.8s0.5-0.4,1-0.2l4.6,1.8c0.4,0.2,0.7,0.5,0.5,0.8c-0.1,0.3-0.5,0.4-1,0.2
				L156.2,15z"/>
			<path class="st0" d="M166.1,12l-6.6,16.9l24,9.3l6.6-16.9L166.1,12z M166.5,10.9l24,9.3c0.6,0.2,0.9,0.9,0.6,1.5l-6.6,16.9
				c-0.2,0.6-0.9,0.9-1.5,0.6l-24-9.3c-0.6-0.2-0.9-0.9-0.6-1.5l6.6-16.9C165.3,11,166,10.7,166.5,10.9z"/>
		</g>
		<path class="st0" d="M207.9,49.2h-63.2c-2.6,0-4.7-2.1-4.7-4.7v-5.2c0-2.6,2.1-4.7,4.7-4.7h63.2c2.6,0,4.7,2.1,4.7,4.7v5.2
			C212.6,47.1,210.5,49.2,207.9,49.2z"/>
		<g>
			<path class="st1" d="M154.3,40.8c0-0.4-0.4-0.6-1-0.6s-0.9,0.3-0.9,0.7c0,1.2,3.5,0.9,3.5,2.9c0,1.1-0.9,1.9-2.3,1.9
				c-0.9,0-1.9-0.3-2.6-0.9l0.3-1c0.6,0.4,1.5,0.7,2.2,0.7c0.6,0,0.9-0.2,0.9-0.6c0-1-3.5-0.7-3.5-3c0-1.1,1-1.9,2.4-1.9
				c1.5,0,2.5,0.7,2.5,1.8c0,0.1,0,0.3-0.1,0.5l-1.5-0.2C154.2,41,154.3,40.9,154.3,40.8z"/>
			<path class="st1" d="M162.6,42.9c0,1.7-1,2.7-2.7,2.7c-1.6,0-2.7-1-2.7-2.7v-3.8h1.5v3.8c0,0.9,0.4,1.5,1.2,1.5
				c0.7,0,1.2-0.6,1.2-1.5v-3.8h1.5V42.9z"/>
			<path class="st1" d="M167.3,40.8c0-0.4-0.4-0.6-1-0.6s-0.9,0.3-0.9,0.7c0,1.2,3.5,0.9,3.5,2.9c0,1.1-0.9,1.9-2.3,1.9
				c-0.9,0-1.9-0.3-2.6-0.9l0.3-1c0.6,0.4,1.5,0.7,2.2,0.7c0.6,0,0.9-0.2,0.9-0.6c0-1-3.5-0.7-3.5-3c0-1.1,1-1.9,2.4-1.9
				c1.5,0,2.5,0.7,2.5,1.8c0,0.1,0,0.3-0.1,0.5l-1.5-0.2C167.3,41,167.3,40.9,167.3,40.8z"/>
			<path class="st1" d="M170,42.3c0-2,1.2-3.4,3-3.4c1.5,0,2.5,0.8,2.5,1.9c0,0.2,0,0.4-0.1,0.5l-1.4-0.2c0-0.1,0-0.1,0-0.2
				c0-0.5-0.4-0.8-1-0.8c-0.9,0-1.5,0.8-1.5,2.2c0,1.3,0.7,2.1,1.7,2.1c0.7,0,1.4-0.3,1.8-0.7l0.5,0.9c-0.7,0.6-1.6,1-2.5,1
				C171.2,45.6,170,44.3,170,42.3z"/>
			<path class="st1" d="M176.9,39.1c0.4,0,1.1-0.2,2.1-0.2c1.5,0,2.4,0.8,2.4,2c0,0.7-0.4,1.3-1,1.7c0.3,0.1,0.4,0.4,0.5,0.7
				l0.2,0.5c0.1,0.3,0.2,0.4,0.6,0.4v1.2c-1.2,0-1.6-0.5-1.9-1.2l-0.2-0.6c-0.2-0.4-0.3-0.7-0.7-0.7h-0.6v2.3h-1.5L176.9,39.1
				L176.9,39.1z M179,42c0.6,0,0.9-0.3,0.9-0.9c0-0.6-0.3-0.9-0.9-0.9c-0.2,0-0.4,0-0.6,0v1.7c-0.2,0-0.5,0-0.5,0s0.1,0,0.2,0h0.9
				V42z"/>
			<path class="st1" d="M182.9,45.4v-6.3h1.5v6.3H182.9z"/>
			<path class="st1" d="M186.1,45.4v-6.3c0.5,0,1.3-0.1,2.2-0.1c1.5,0,2.4,0.7,2.4,1.8c0,0.6-0.4,1.1-0.9,1.5
				c0.8,0.3,1.2,0.9,1.2,1.5c0,1.2-1,1.9-2.6,1.9C187.6,45.6,186.6,45.4,186.1,45.4z M188.3,41.7c0.5,0,0.8-0.3,0.8-0.8
				c0-0.4-0.4-0.7-0.9-0.7c-0.3,0-0.4,0-0.6,0v1.5c-0.1,0-0.5,0-0.5,0s0.2,0,0.3,0H188.3z M189.5,43.6c0-0.5-0.4-0.8-1.1-0.8h-0.8
				v1.6c0.3,0,0.5,0.1,0.8,0.1C189.1,44.5,189.5,44.1,189.5,43.6z"/>
			<path class="st1" d="M192.3,45.4v-6.3h1.5v6.3H192.3z"/>
			<path class="st1" d="M195.6,39.1c0.4,0,1.1-0.2,2.1-0.2c1.5,0,2.4,0.8,2.4,2c0,0.7-0.4,1.3-1,1.7c0.3,0.1,0.4,0.4,0.5,0.7
				l0.2,0.5c0.1,0.3,0.2,0.4,0.6,0.4v1.2c-1.2,0-1.6-0.5-1.9-1.2l-0.2-0.6c-0.2-0.4-0.3-0.7-0.7-0.7H197v2.3h-1.5L195.6,39.1
				L195.6,39.1z M197.7,42c0.6,0,0.9-0.3,0.9-0.9c0-0.6-0.3-0.9-0.9-0.9c-0.2,0-0.4,0-0.6,0v1.7c-0.2,0-0.5,0-0.5,0s0.1,0,0.2,0h0.9
				V42z"/>
		</g>
		<g>
			<path class="st0" d="M14.5,27.9v0.9c-0.9,0-1.5-0.5-1.9-1.7l-0.5-1.6c-0.3-0.9-0.6-1.1-1.4-1.1H8.8v4.4H7.7V18.5
				c0.8,0,1.4-0.2,2.7-0.2c2,0,3.3,1.1,3.3,3.1c0,1.2-0.6,2.1-1.6,2.6c0.5,0.3,0.8,0.8,1,1.5l0.5,1.6C13.8,27.8,14,27.9,14.5,27.9z
				 M12.6,21.4c0-1.4-0.8-2.2-2.2-2.2c-0.6,0-1.1,0-1.6,0.1v4.1c-0.2,0-0.5,0-0.5,0s0.1,0.1,0.2,0.1h1.8
				C11.7,23.6,12.6,22.7,12.6,21.4z"/>
			<path class="st0" d="M14.9,25.7c0-2.1,1.2-3.5,3-3.5s2.9,1.4,2.6,3.6h-4.6c0,1.5,0.8,2.4,1.9,2.4c0.9,0,1.7-0.2,2.2-0.7l0.3,0.8
				c-0.8,0.6-1.6,0.8-2.6,0.8C16.1,29,14.9,27.7,14.9,25.7z M19.6,25c0.1-1.2-0.6-1.9-1.7-1.9c-0.9,0-1.7,0.7-1.9,1.8
				c0,0.1-0.4,0-0.4,0.1H19.6z"/>
			<path class="st0" d="M22.2,31.9l0.3-0.8c0.5,0.4,1.4,0.7,2.2,0.7c1.1,0,1.9-0.7,1.9-1.6v-1.9c0-0.6,0.4-1,0.3-1S26.1,29,24.6,29
				C23,29,22,27.6,22,25.6c0-2.1,1.1-3.4,2.9-3.4c0.6,0,1.4,0.3,1.8,0.8v-0.6h1v7.9c0,1.5-1.1,2.5-2.7,2.5
				C23.9,32.7,22.9,32.4,22.2,31.9z M26.6,26.3v-2.2c-0.4-0.6-1.1-1.1-1.8-1.1c-1.2,0-1.9,1-1.9,2.6c0,1.5,0.5,2.6,1.7,2.6
				C25.3,28.2,26.1,27.4,26.6,26.3z"/>
			<path class="st0" d="M29.7,20.5l2.1-2.1l0.7,0.8L30.2,21L29.7,20.5z M30.2,22.4h1v6.5h-1V22.4z"/>
			<path class="st0" d="M37.8,27.2c0,1.1-0.9,1.8-2.3,1.8c-0.7,0-1.7-0.3-2.3-0.8l0.3-0.8c0.5,0.4,1.3,0.7,2,0.7s1.4-0.4,1.4-0.9
				c0-1.6-3.7-0.9-3.7-3.3c0-1.1,0.9-1.8,2.3-1.8c1.2,0,2.2,0.6,2.2,1.5c0,0.3-0.1,0.6-0.3,0.8l-0.8-0.3c0.1-0.1,0.1-0.3,0.1-0.5
				c0-0.5-0.6-0.8-1.2-0.8c-0.8,0-1.3,0.4-1.3,1C34.1,25.5,37.8,24.9,37.8,27.2z"/>
			<path class="st0" d="M40.1,27.1v-4h-1v-0.8h1v-2h1v2h2.2v0.8h-2.6c-0.1,0-0.2,0-0.2,0.1H41v3.9c0,0.6,0.3,1,0.7,1
				c0.5,0,1-0.3,1.3-0.7l0.3,0.8c-0.4,0.4-1,0.8-1.6,0.8C40.7,29,40.1,28.4,40.1,27.1z"/>
			<path class="st0" d="M45.3,22.4h1v0.5c0,0.6-0.4,1-0.3,1c0.1,0,0.7-1.7,2.7-1.7v0.9c-1,0-2,0.7-2.4,1.8v3.9h-1V22.4z"/>
			<path class="st0" d="M49.8,27.5c0-1.2,1.5-2,3.7-2h0.4v-1c0-0.9-0.5-1.5-1.5-1.5c-0.9,0-1.5,0.4-1.5,1c0,0.2,0,0.3,0.1,0.5
				l-0.8,0.3C50.1,24.6,50,24.3,50,24c0-1.1,1-1.8,2.5-1.8s2.5,0.9,2.5,2.3v4.4h-1v-0.5c0-0.6,0.4-1,0.3-1c-0.2,0-0.7,1.7-2.6,1.7
				C50.5,29,49.8,28.4,49.8,27.5z M53.9,26.3c-1.8,0-3.1,0.5-3.1,1.2c0,0.4,0.4,0.7,0.9,0.7C52.7,28.2,53.5,27.5,53.9,26.3z"/>
			<path class="st0" d="M57.6,27.1v-4h-1v-0.8h1v-2h1v2h2.2v0.8h-2.6c-0.1,0-0.2,0-0.2,0.1h0.5v3.9c0,0.6,0.3,1,0.7,1
				c0.5,0,1-0.3,1.3-0.7l0.3,0.8c-0.4,0.4-1,0.8-1.6,0.8C58.2,29,57.6,28.4,57.6,27.1z"/>
			<path class="st0" d="M62.3,25.7c0-2.1,1.2-3.5,3-3.5s2.9,1.4,2.6,3.6h-4.6c0,1.5,0.8,2.4,1.9,2.4c0.9,0,1.7-0.2,2.2-0.7l0.3,0.8
				C67,28.8,66.2,29,65.2,29C63.5,29,62.3,27.7,62.3,25.7z M67,25c0.1-1.2-0.6-1.9-1.7-1.9c-0.9,0-1.7,0.7-1.9,1.8
				c0,0.1-0.4,0-0.4,0.1H67z"/>
			<path class="st0" d="M73.8,25.7c0-2.1,1.2-3.5,3-3.5s2.9,1.4,2.6,3.6h-4.6c0,1.5,0.8,2.4,1.9,2.4c0.9,0,1.7-0.2,2.2-0.7l0.3,0.8
				c-0.8,0.6-1.6,0.8-2.6,0.8C75,29,73.8,27.7,73.8,25.7z M78.5,25c0.1-1.2-0.6-1.9-1.7-1.9c-0.9,0-1.7,0.7-1.9,1.8
				c0,0.1-0.4,0-0.4,0.1H78.5z"/>
			<path class="st0" d="M86.5,24.5v4.3h-1v-4.2c0-1.1-0.4-1.6-1.2-1.6c-0.7,0-1.6,0.8-2.1,1.9v3.9h-1v-6.5h1v0.5c0,0.6-0.4,1-0.3,1
				s0.8-1.7,2.5-1.7C85.9,22.2,86.5,23,86.5,24.5z"/>
			<path class="st0" d="M12.7,42.5v4.3h-1v-4.2c0-1.1-0.4-1.6-1.2-1.6c-0.7,0-1.6,0.8-2.1,1.9v3.9h-1v-6.5h1v0.5c0,0.6-0.4,1-0.3,1
				c0.1,0,0.8-1.7,2.5-1.7C12,40.2,12.7,41,12.7,42.5z"/>
			<path class="st0" d="M14.8,44.7v-4.3h1v4.2c0,1.1,0.4,1.7,1.2,1.7c0.7,0,1.6-0.8,2.1-1.9v-3.9h1V47h-1v-0.5c0-0.6,0.4-1,0.3-1
				s-0.7,1.7-2.5,1.7C15.5,47,14.8,46.2,14.8,44.7z"/>
			<path class="st0" d="M21.8,43.7c0-2.1,1.2-3.5,3-3.5s2.9,1.4,2.6,3.6h-4.6c0,1.5,0.8,2.4,1.9,2.4c0.9,0,1.7-0.2,2.2-0.7l0.3,0.8
				c-0.8,0.6-1.6,0.8-2.6,0.8C23,47,21.8,45.7,21.8,43.7z M26.5,43c0.1-1.2-0.6-1.9-1.7-1.9c-0.9,0-1.7,0.7-1.9,1.8
				c0,0.1-0.4,0-0.4,0.1C22.5,43,26.5,43,26.5,43z"/>
			<path class="st0" d="M33.3,45.2c0,1.1-0.9,1.8-2.3,1.8c-0.7,0-1.7-0.3-2.3-0.8l0.3-0.8c0.5,0.4,1.3,0.7,2,0.7s1.4-0.4,1.4-0.9
				c0-1.6-3.7-0.9-3.7-3.3c0-1.1,0.9-1.8,2.3-1.8c1.2,0,2.2,0.6,2.2,1.5c0,0.3-0.1,0.6-0.3,0.8L32,42.3c0.1-0.1,0.1-0.3,0.1-0.5
				c0-0.5-0.6-0.8-1.2-0.8c-0.8,0-1.3,0.4-1.3,1C29.6,43.5,33.3,42.9,33.3,45.2z"/>
			<path class="st0" d="M35.6,45.1v-4h-1v-0.8h1v-2h1v2h2.2v0.8h-2.6c-0.1,0-0.2,0-0.2,0.1h0.5v3.9c0,0.6,0.3,1,0.7,1
				c0.5,0,1-0.3,1.3-0.7l0.3,0.8c-0.4,0.5-1,0.8-1.6,0.8C36.2,47,35.6,46.4,35.6,45.1z"/>
			<path class="st0" d="M40.7,40.4h1v0.5c0,0.6-0.4,1-0.3,1c0.1,0,0.7-1.7,2.7-1.7v0.9c-1,0-2,0.7-2.4,1.8v3.9h-1V40.4z"/>
			<path class="st0" d="M51.1,43.6c0,2.1-1.1,3.4-2.9,3.4c-1.8,0-2.9-1.3-2.9-3.4c0-2.1,1.1-3.4,2.9-3.4
				C50.1,40.2,51.1,41.5,51.1,43.6z M50.1,43.6c0-1.6-0.7-2.6-1.9-2.6s-1.9,1-1.9,2.6s0.7,2.6,1.9,2.6
				C49.4,46.2,50.1,45.2,50.1,43.6z"/>
			<path class="st0" d="M63.2,42.5v4.3h-1.9v-4.1c0-0.7-0.3-1.2-0.9-1.2c-0.6,0-1.2,0.5-1.5,1.3v4H57v-6.5h1.9v0.4
				c0,0.5-0.6,1.2-0.4,1.2c0.2,0,0.7-1.8,2.4-1.8C62.4,40.2,63.2,41,63.2,42.5z"/>
			<path class="st0" d="M64.4,43.6c0-2.1,1.3-3.5,3.3-3.5c2.1,0,3.3,1.5,3,3.7h-4.4c0.1,1,0.7,1.7,1.5,1.7s1.5-0.3,2.1-0.7l0.6,1.1
				c-0.8,0.6-1.8,1-3,1C65.6,47,64.4,45.7,64.4,43.6z M68.9,43.1c0-0.9-0.5-1.5-1.2-1.5s-1.2,0.5-1.4,1.4c0,0.1-0.8,0-0.8,0.1H68.9z
				"/>
			<path class="st0" d="M81.8,40.4l-2,6.5h-2l-1-3.8c0-0.1,0.4-1.2,0.3-1.2c0,0,0,0,0,0.1l-1.5,5h-2l-2-6.5h1.9l1.1,4.8l1.3-4.8h1.8
				l1.1,4.8l1.2-4.8L81.8,40.4L81.8,40.4z"/>
			<path class="st0" d="M88,45.1c0,1.2-1.1,1.9-2.8,1.9c-1,0-2.1-0.4-2.8-0.9l0.5-1.1c0.6,0.4,1.5,0.7,2.4,0.7
				c0.5,0,0.9-0.2,0.9-0.6c0-1.2-3.8-0.7-3.8-2.9c0-1.2,1.1-2.1,2.7-2.1s2.7,0.6,2.7,1.6c0,0.3-0.1,0.6-0.3,0.9l-1.6-0.4
				c0-0.1,0.1-0.2,0.1-0.3c0-0.3-0.4-0.5-0.8-0.5c-0.6,0-0.9,0.3-0.9,0.7C84.2,43.4,88,42.9,88,45.1z"/>
			<path class="st0" d="M89.3,36.5h1.9v10.3h-1.9V36.5z"/>
			<path class="st0" d="M92.4,43.6c0-2.1,1.3-3.5,3.3-3.5c2.1,0,3.3,1.5,3,3.7h-4.4c0.1,1,0.7,1.7,1.5,1.7s1.5-0.3,2.1-0.7l0.6,1.1
				c-0.8,0.6-1.8,1-3,1C93.6,47,92.4,45.7,92.4,43.6z M96.9,43.1c0-0.9-0.5-1.5-1.2-1.5s-1.2,0.5-1.4,1.4c0,0.1-0.8,0-0.8,0.1H96.9z
				"/>
			<path class="st0" d="M100.5,45v-3.3h-1v-1.3h1v-2h1.9v2h2.1v1.3h-2.7c-0.2,0-0.2,0-0.2,0.1h0.8v3c0,0.5,0.2,0.8,0.6,0.8
				s0.9-0.2,1.1-0.6l0.6,1.1c-0.6,0.5-1.4,0.8-2,0.8C101.4,47,100.5,46.3,100.5,45z"/>
			<path class="st0" d="M106.6,45v-3.3h-1v-1.3h1v-2h1.9v2h2.1v1.3h-2.7c-0.2,0-0.2,0-0.2,0.1h0.8v3c0,0.5,0.2,0.8,0.6,0.8
				s0.9-0.2,1.1-0.6l0.6,1.1c-0.6,0.5-1.4,0.8-2,0.8C107.4,47,106.6,46.3,106.6,45z"/>
			<path class="st0" d="M111.6,43.6c0-2.1,1.3-3.5,3.3-3.5c2.1,0,3.3,1.5,3,3.7h-4.4c0.1,1,0.7,1.7,1.5,1.7s1.5-0.3,2.1-0.7l0.6,1.1
				c-0.8,0.6-1.8,1-3,1C112.9,47,111.6,45.7,111.6,43.6z M116.2,43.1c0-0.9-0.5-1.5-1.2-1.5s-1.2,0.5-1.4,1.4c0,0.1-0.8,0-0.8,0.1
				H116.2z"/>
			<path class="st0" d="M119.2,40.4h1.9v0.4c0,0.5-0.6,1.2-0.4,1.2s0.6-1.8,2.8-1.8v1.5c-1,0-1.9,0.5-2.3,1.2v3.9h-1.9L119.2,40.4
				L119.2,40.4z"/>
		</g>
	</g>
</g>
</svg>
