<?xml version="1.0" encoding="utf-8"?>
<!-- Generator: Adobe Illustrator 23.0.2, SVG Export Plug-In . SVG Version: 6.00 Build 0)  -->
<svg version="1.1" id="Capa_1" xmlns="http://www.w3.org/2000/svg" xmlns:xlink="http://www.w3.org/1999/xlink" x="0px" y="0px"
	 viewBox="0 0 220 60" style="enable-background:new 0 0 220 60;" xml:space="preserve">
<style type="text/css">
	.st0{enable-background:new    ;}
	.st1{fill:#1E3466;}
</style>
<g>
	<title>icono-1</title>
	<g class="st0">
		<path class="st1" d="M70.1,27v2.1c-2.4,0-3-1.1-3.4-2.3l-0.2-0.6c-0.3-0.8-0.5-1.4-1.4-1.4h-1v4.1h-2.5V17.7
			c0.7,0,1.9-0.3,3.7-0.3c2.5,0,4.2,1.4,4.2,3.6c0,1.2-0.6,2.1-1.8,2.7c0.5,0.3,0.8,0.8,1,1.4l0.2,0.7C69,26.5,69.3,27,70.1,27z
			 M66.8,21c0-0.9-0.7-1.5-1.7-1.5c-0.4,0-0.7,0-1.1,0v3.1c-0.3,0-1,0-1,0.1c0,0,0.1,0,0.2,0h1.6C66,22.7,66.8,22,66.8,21z"/>
	</g>
	<g class="st0">
		<path class="st1" d="M70.2,25.4c0-2.2,1.5-3.7,3.8-3.7c2.4,0,3.8,1.7,3.4,4.1h-4.6c0.1,0.9,0.6,1.5,1.4,1.5s1.6-0.3,2.2-0.8
			l0.8,1.4c-0.9,0.7-2.1,1.2-3.5,1.2C71.6,29,70.2,27.6,70.2,25.4z M75.1,24.8c0-0.8-0.4-1.3-1.1-1.3c-0.6,0-1,0.5-1.2,1.2
			c0,0.1-1,0-1,0.1H75.1z"/>
		<path class="st1" d="M86.3,25.3c0,2.2-1.3,3.7-3.4,3.7c-0.7,0-1.4-0.3-1.9-0.8v4.7h-2.5v-11H81v0.4c0,0.4-0.7,1.4-0.6,1.4
			c0.2,0,0.6-2,2.7-2C85.1,21.6,86.3,23.1,86.3,25.3z M83.8,25.3c0-1.2-0.5-1.9-1.4-1.9c-0.5,0-1.1,0.4-1.4,0.9v2.2
			c0.3,0.4,0.9,0.6,1.4,0.6C83.3,27.2,83.8,26.5,83.8,25.3z"/>
		<path class="st1" d="M94.9,25.3c0,2.2-1.5,3.7-3.9,3.7s-3.9-1.5-3.9-3.7s1.5-3.7,3.9-3.7C93.3,21.6,94.9,23.1,94.9,25.3z
			 M92.4,25.3c0-1.2-0.6-1.9-1.4-1.9c-0.9,0-1.4,0.7-1.4,1.9s0.6,1.9,1.4,1.9C91.8,27.2,92.4,26.5,92.4,25.3z"/>
		<path class="st1" d="M96,21.8h2.5v0.4c0,0.5-0.7,1.5-0.6,1.5c0.2,0,0.6-2,3-2v2c-1,0-2,0.4-2.5,1v4.2h-2.5L96,21.8L96,21.8z"/>
	</g>
	<g class="st0">
		<path class="st1" d="M102.5,26.8v-3.2h-1.1v-1.8h1.1v-2.1h2.5v2.1h2.3v1.8h-3c-0.2,0-0.3,0-0.3,0.1s1,0,1,0.1v2.8
			c0,0.5,0.2,0.7,0.6,0.7s0.8-0.2,1.2-0.6l0.8,1.4c-0.7,0.6-1.7,0.9-2.4,0.9C103.6,29,102.5,28.2,102.5,26.8z"/>
	</g>
	<g class="st0">
		<path class="st1" d="M108.2,25.4c0-2.2,1.5-3.7,3.8-3.7c2.4,0,3.8,1.7,3.4,4.1h-4.6c0.1,0.9,0.6,1.5,1.4,1.5s1.6-0.3,2.2-0.8
			l0.8,1.4c-0.9,0.7-2.1,1.2-3.5,1.2C109.5,29,108.2,27.6,108.2,25.4z M113,24.8c0-0.8-0.4-1.3-1.1-1.3c-0.6,0-1,0.5-1.2,1.2
			c0,0.1-1,0-1,0.1H113z"/>
		<path class="st1" d="M116.5,21.8h2.5v0.4c0,0.5-0.7,1.5-0.6,1.5c0.2,0,0.6-2,3-2v2c-1,0-2,0.4-2.5,1v4.2h-2.5L116.5,21.8
			L116.5,21.8z"/>
		<path class="st1" d="M129.8,25.3c0,2.2-1.5,3.7-3.9,3.7s-3.9-1.5-3.9-3.7s1.5-3.7,3.9-3.7C128.2,21.6,129.8,23.1,129.8,25.3z
			 M127.3,25.3c0-1.2-0.6-1.9-1.4-1.9c-0.9,0-1.4,0.7-1.4,1.9s0.6,1.9,1.4,1.9C126.8,27.2,127.3,26.5,127.3,25.3z"/>
		<path class="st1" d="M134.9,25.4c0-2.2,1.5-3.7,3.8-3.7c1.9,0,3.1,0.9,3.1,2.1c0,0.4-0.1,0.8-0.3,1.1l-2.2-0.5
			c0-0.1,0.1-0.2,0.1-0.3c0-0.4-0.3-0.6-0.7-0.6c-0.8,0-1.2,0.7-1.2,1.9s0.6,1.9,1.5,1.9c0.8,0,1.5-0.3,2.2-0.8l0.8,1.4
			c-0.9,0.7-2.1,1.2-3.4,1.2C136.3,29,134.9,27.6,134.9,25.4z"/>
		<path class="st1" d="M142.5,19c0-0.8,0.7-1.5,1.5-1.5s1.5,0.7,1.5,1.5s-0.7,1.5-1.5,1.5S142.5,19.8,142.5,19z M142.7,21.8h2.5v7
			h-2.5V21.8z"/>
		<path class="st1" d="M146.6,26.6v-4.8h2.5v4.4c0,0.6,0.3,1,0.9,1c0.5,0,1-0.4,1.4-1v-4.4h2.5v7h-2.5v-0.4c0-0.5,0.7-1.5,0.6-1.5
			c-0.2,0-0.6,2-2.6,2C147.6,29,146.6,28.2,146.6,26.6z"/>
		<path class="st1" d="M154.9,25.3c0-2.2,1.4-3.7,3.4-3.7c0.7,0,1.4,0.3,1.8,0.8v-4.7h2.5v11.2h-2.4v-0.4c0-0.4,0.7-1.4,0.6-1.4
			s-0.6,2-2.6,2C156.2,29,154.9,27.6,154.9,25.3z M160.2,26.2v-2.1c-0.3-0.4-0.8-0.6-1.4-0.6c-0.8,0-1.4,0.7-1.4,1.9
			s0.5,1.9,1.3,1.9C159.4,27.2,160,26.8,160.2,26.2z"/>
		<path class="st1" d="M163.7,27.3c0-1.3,1.4-2.1,3.6-2.1h0.7v-0.8c0-0.6-0.3-0.9-0.8-0.9s-0.8,0.2-0.8,0.6c0,0.1,0,0.2,0.1,0.3
			l-2.3,0.4c-0.2-0.2-0.3-0.5-0.3-0.9c0-1.3,1.3-2.1,3.3-2.1c2.2,0,3.2,1,3.2,2.6v4.5h-2.5v-0.3c0-0.5,0.7-1.5,0.6-1.5
			c-0.2,0-0.7,2-2.6,2C164.6,29,163.7,28.3,163.7,27.3z M168,26.1c-1.1,0-1.8,0.3-1.8,0.8c0,0.3,0.2,0.5,0.5,0.5
			C167.4,27.4,167.9,26.9,168,26.1z"/>
		<path class="st1" d="M171.6,25.3c0-2.2,1.4-3.7,3.4-3.7c0.7,0,1.4,0.3,1.8,0.8v-4.7h2.5v11.2h-2.5v-0.4c0-0.4,0.7-1.4,0.6-1.4
			c-0.2,0-0.6,2-2.6,2C172.9,29,171.6,27.6,171.6,25.3z M176.8,26.2v-2.1c-0.3-0.4-0.8-0.6-1.4-0.6c-0.8,0-1.4,0.7-1.4,1.9
			s0.5,1.9,1.3,1.9C176.1,27.2,176.6,26.8,176.8,26.2z"/>
		<path class="st1" d="M180.4,27.3c0-1.3,1.4-2.1,3.6-2.1h0.7v-0.8c0-0.6-0.3-0.9-0.8-0.9s-0.8,0.2-0.8,0.6c0,0.1,0,0.2,0.1,0.3
			l-2.3,0.4c-0.2-0.2-0.3-0.5-0.3-0.9c0-1.3,1.3-2.1,3.3-2.1c2.2,0,3.2,1,3.2,2.6v4.5h-2.5v-0.3c0-0.5,0.7-1.5,0.6-1.5
			c-0.2,0-0.7,2-2.6,2C181.3,29,180.4,28.3,180.4,27.3z M184.7,26.1c-1.1,0-1.8,0.3-1.8,0.8c0,0.3,0.2,0.5,0.5,0.5
			C184,27.4,184.5,26.9,184.7,26.1z"/>
		<path class="st1" d="M195.8,24.1v4.8h-2.5v-4.4c0-0.6-0.3-1-0.9-1c-0.5,0-1,0.4-1.4,1v4.4h-2.5v-7h2.5v0.4c0,0.5-0.7,1.5-0.6,1.5
			c0.2,0,0.7-2,2.6-2C194.8,21.6,195.8,22.6,195.8,24.1z"/>
		<path class="st1" d="M204.5,25.3c0,2.2-1.5,3.7-3.9,3.7s-3.9-1.5-3.9-3.7s1.5-3.7,3.9-3.7S204.5,23.1,204.5,25.3z M202.1,25.3
			c0-1.2-0.6-1.9-1.4-1.9c-0.9,0-1.4,0.7-1.4,1.9s0.6,1.9,1.4,1.9C201.5,27.2,202.1,26.5,202.1,25.3z"/>
	</g>
	<g class="st0">
		<path class="st1" d="M67,41.5c0,1.4-1.1,2.3-2.8,2.3c-0.9,0-2.1-0.4-2.9-1l0.4-0.6c0.7,0.6,1.7,0.9,2.5,0.9c1.2,0,1.9-0.5,1.9-1.5
			c0-2.3-4.8-1.2-4.8-4.2c0-1.3,1.1-2.2,2.7-2.2c1.7,0,2.6,0.8,2.6,2.1c0,0.2,0,0.3-0.1,0.5l-0.7-0.2c0-0.1,0.1-0.2,0.1-0.3
			c0-0.9-0.7-1.4-1.9-1.4c-1.1,0-1.9,0.6-1.9,1.4C62.1,39.7,67,38.8,67,41.5z"/>
		<path class="st1" d="M68.5,41.9v-3.5h0.8v3.3c0,0.9,0.3,1.3,0.9,1.3s1.2-0.6,1.6-1.5v-3.1h0.8v5.2h-0.8v-0.4
			c0-0.5,0.3-0.8,0.2-0.8c-0.1,0-0.5,1.3-2,1.3C69,43.8,68.5,43.1,68.5,41.9z"/>
		<path class="st1" d="M75.3,43.1v0.5h-0.8v-8.3h0.8v3.6c0,0.5-0.3,0.8-0.2,0.8c0.1,0,0.6-1.3,2-1.3s2.1,0.9,2.1,2.7
			c0,1.7-0.9,2.7-2.3,2.7C76.2,43.8,75.6,43.6,75.3,43.1z M78.3,41c0-1.3-0.5-2.1-1.4-2.1c-0.6,0-1.2,0.6-1.6,1.5v1.8
			c0.3,0.5,0.9,0.9,1.6,0.9C77.8,43.1,78.3,42.3,78.3,41z"/>
		<path class="st1" d="M80.3,41.1c0-1.7,0.9-2.8,2.4-2.8s2.3,1.1,2.1,2.9h-3.6c0,1.2,0.6,1.9,1.5,1.9c0.7,0,1.4-0.2,1.8-0.6l0.3,0.6
			c-0.6,0.4-1.3,0.6-2.1,0.6C81.2,43.8,80.3,42.7,80.3,41.1z M84,40.5c0.1-1-0.5-1.5-1.4-1.5c-0.7,0-1.3,0.6-1.5,1.5
			c0,0-0.3,0-0.3,0.1L84,40.5L84,40.5z"/>
		<path class="st1" d="M90.2,42.3v-3.2h-0.8v-0.6h0.8v-1.6H91v1.6h1.8v0.6h-2.1c-0.1,0-0.1,0-0.1,0.1H91v3.1c0,0.5,0.2,0.8,0.6,0.8
			s0.8-0.2,1-0.5l0.3,0.6c-0.3,0.4-0.8,0.6-1.3,0.6C90.7,43.8,90.2,43.3,90.2,42.3z"/>
		<path class="st1" d="M94.3,41.9v-3.5h0.8v3.3c0,0.9,0.3,1.3,0.9,1.3s1.2-0.6,1.6-1.5v-3.1h0.8v5.2h-0.8v-0.4
			c0-0.5,0.3-0.8,0.2-0.8c-0.1,0-0.5,1.3-2,1.3C94.8,43.8,94.3,43.1,94.3,41.9z"/>
		<path class="st1" d="M108.1,40.2v3.5h-0.9v-3.3c0-0.9-0.3-1.3-0.9-1.3s-1.2,0.6-1.6,1.5v3.1h-0.8v-5.2h0.8v0.4
			c0,0.5-0.3,0.8-0.2,0.8c0.1,0,0.6-1.3,2-1.3C107.5,38.3,108.1,39,108.1,40.2z"/>
		<path class="st1" d="M114.1,41c0,1.7-0.9,2.7-2.4,2.7s-2.4-1-2.4-2.7s0.9-2.7,2.4-2.7S114.1,39.3,114.1,41z M113.3,41
			c0-1.3-0.6-2.1-1.5-2.1s-1.5,0.8-1.5,2.1s0.6,2.1,1.5,2.1S113.3,42.3,113.3,41z"/>
		<path class="st1" d="M115.9,42.3v-3.2h-0.8v-0.6h0.8v-1.6h0.8v1.6h1.8v0.6h-2.1c-0.1,0-0.1,0-0.1,0.1h0.4v3.1
			c0,0.5,0.2,0.8,0.6,0.8s0.8-0.2,1-0.5l0.3,0.6c-0.3,0.4-0.8,0.6-1.3,0.6C116.4,43.8,115.9,43.3,115.9,42.3z"/>
		<path class="st1" d="M119.9,36.6c0-0.3,0.3-0.6,0.6-0.6s0.6,0.3,0.6,0.6s-0.3,0.6-0.6,0.6S119.9,36.9,119.9,36.6z M120.1,38.5h0.8
			v5.2h-0.8V38.5z"/>
		<path class="st1" d="M122.3,41.1c0-1.7,0.9-2.8,2.4-2.8c1.1,0,1.9,0.6,1.9,1.5c0,0.2-0.1,0.5-0.2,0.7l-0.7-0.2
			c0.1-0.1,0.1-0.3,0.1-0.4c0-0.5-0.5-0.8-1.1-0.8c-1,0-1.6,0.8-1.6,2.1c0,1.2,0.7,2,1.7,2c0.6,0,1.1-0.2,1.6-0.6l0.3,0.6
			c-0.6,0.4-1.3,0.6-1.8,0.6C123.4,43.8,122.4,42.7,122.3,41.1z"/>
		<path class="st1" d="M127.8,36.6c0-0.3,0.3-0.6,0.6-0.6c0.3,0,0.6,0.3,0.6,0.6s-0.3,0.6-0.6,0.6S127.8,36.9,127.8,36.6z M128,38.5
			h0.8v5.2H128V38.5z"/>
		<path class="st1" d="M130.2,42.6c0-0.9,1.2-1.6,3-1.6h0.3v-0.8c0-0.7-0.4-1.2-1.2-1.2c-0.7,0-1.2,0.3-1.2,0.8c0,0.1,0,0.3,0.1,0.4
			l-0.7,0.2c-0.1-0.2-0.2-0.4-0.2-0.7c0-0.9,0.8-1.5,2-1.5s2,0.7,2,1.8v3.5h-0.8v-0.4c0-0.5,0.3-0.8,0.2-0.8s-0.5,1.3-2.1,1.3
			C130.8,43.8,130.2,43.3,130.2,42.6z M133.5,41.6c-1.5,0-2.5,0.4-2.5,1c0,0.4,0.3,0.6,0.7,0.6C132.6,43.1,133.2,42.5,133.5,41.6z"
			/>
	</g>
	<path class="st1" d="M45.9,13.2H19.1c-2,0.1-3.6,1.7-3.6,3.7V33c0,2.1,1.7,3.8,3.8,3.8h6v9c0,0.4,0.2,0.8,0.6,0.9
		c0.1,0.1,0.3,0.1,0.5,0.1s0.5-0.1,0.6-0.2l11.4-9.8H46c2.1,0,3.8-1.7,3.8-3.8V16.9C49.7,14.8,48,13.2,45.9,13.2z M47.7,33
		c0,1-0.8,1.8-1.8,1.8h-8.5l-10.1,8.9v-8.9h-8c-1,0-1.8-0.8-1.8-1.8V16.9c0-1,0.8-1.8,1.8-1.8h26.6c1,0,1.8,0.8,1.8,1.8V33z"/>
	<g class="st0">
		<path class="st1" d="M31.8,30.8c0-1,0.8-1.8,1.8-1.8s1.8,0.8,1.8,1.8s-0.8,1.8-1.8,1.8C32.6,32.7,31.8,31.8,31.8,30.8z M32.1,18.7
			h3l-0.3,8.5h-2.3L32.1,18.7z"/>
	</g>
</g>
</svg>
